<svg version="1.1" id="Layer_1" xmlns="http://www.w3.org/2000/svg" xmlns:xlink="http://www.w3.org/1999/xlink" x="0px" y="0px"
	 width="100%" viewBox="0 0 2000 2636" enable-background="new 0 0 2000 2636" xml:space="preserve">
<path fill="#4C6971" opacity="1.000000" stroke="none" 
	d="
M2.000000,932.000000 
	C2.000000,621.333313 2.000000,311.666656 2.000000,2.000000 
	C668.666687,2.000000 1335.333374,2.000000 2002.000000,2.000000 
	C2002.000000,880.666687 2002.000000,1759.333374 2002.000000,2638.000000 
	C1335.333374,2638.000000 668.666687,2638.000000 2.000000,2638.000000 
	C2.000000,2069.666748 2.000000,1501.333374 2.000000,932.000000 
M23.668516,904.999878 
	C23.668528,1416.307739 23.649649,1927.615723 23.799753,2438.923584 
	C23.802856,2449.496826 24.790293,2460.274902 26.967945,2470.609863 
	C44.542984,2554.021973 118.507973,2612.491943 201.714218,2612.454590 
	C735.693909,2612.214844 1269.673706,2612.294434 1803.653564,2612.395020 
	C1852.678101,2612.404297 1894.850586,2595.791016 1929.887207,2561.760986 
	C1964.991821,2527.664795 1983.509155,2485.711426 1983.527344,2436.800537 
	C1983.742676,1859.489014 1983.665894,1282.177490 1983.665283,704.865967 
	C1983.665283,701.866089 1984.075439,698.788086 1983.533203,695.888855 
	C1983.017578,693.131897 1982.074951,690.077148 1980.317871,688.002136 
	C1975.376831,682.167603 1970.057251,676.632690 1964.646118,671.220398 
	C1753.016602,459.544678 1541.339478,247.916718 1329.820801,36.130196 
	C1324.194092,30.496237 1318.663818,28.163563 1310.668457,28.167704 
	C940.349243,28.359518 570.029846,28.316151 199.710541,28.440031 
	C190.455933,28.443127 181.096024,29.399570 171.965912,30.965126 
	C133.351608,37.586372 100.246033,54.863361 73.178955,83.357979 
	C41.329353,116.887367 23.783571,156.552841 23.748734,203.026276 
	C23.573818,436.350677 23.668520,669.675232 23.668516,904.999878 
z"/>
<path fill="#FF0000" opacity="1.000000" stroke="none" 
	d="
M23.668514,903.999817 
	C23.668520,669.675232 23.573818,436.350677 23.748734,203.026276 
	C23.783571,156.552841 41.329353,116.887367 73.178955,83.357979 
	C100.246033,54.863361 133.351608,37.586372 171.965912,30.965126 
	C181.096024,29.399570 190.455933,28.443127 199.710541,28.440031 
	C570.029846,28.316151 940.349243,28.359518 1310.668457,28.167704 
	C1318.663818,28.163563 1324.194092,30.496237 1329.820801,36.130196 
	C1541.339478,247.916718 1753.016602,459.544678 1964.646118,671.220398 
	C1970.057251,676.632690 1975.376831,682.167603 1980.317871,688.002136 
	C1982.074951,690.077148 1983.017578,693.131897 1983.533203,695.888855 
	C1984.075439,698.788086 1983.665283,701.866089 1983.665283,704.865967 
	C1983.665894,1282.177490 1983.742676,1859.489014 1983.527344,2436.800537 
	C1983.509155,2485.711426 1964.991821,2527.664795 1929.887207,2561.760986 
	C1894.850586,2595.791016 1852.678101,2612.404297 1803.653564,2612.395020 
	C1269.673706,2612.294434 735.693909,2612.214844 201.714218,2612.454590 
	C118.507973,2612.491943 44.542984,2554.021973 26.967945,2470.609863 
	C24.790293,2460.274902 23.802856,2449.496826 23.799753,2438.923584 
	C23.649649,1927.615723 23.668528,1416.307739 23.668514,903.999817 
M467.801422,1463.843018 
	C473.042023,1485.442871 488.896759,1498.220703 510.679230,1498.321899 
	C522.670837,1498.377686 534.662903,1498.332764 546.654785,1498.332764 
	C654.581665,1498.332886 762.508606,1498.397095 870.435059,1498.180176 
	C877.235168,1498.166504 884.582214,1497.223755 890.726379,1494.541016 
	C910.114014,1486.075562 917.454468,1469.468750 917.578613,1449.428101 
	C917.852844,1405.126465 917.678467,1360.822021 917.623596,1316.518677 
	C917.620483,1313.996460 917.047241,1311.474976 916.663879,1308.334595 
	C913.005127,1308.334595 910.043091,1308.331665 907.081116,1308.335205 
	C760.863586,1308.505859 614.646057,1308.676758 468.428467,1308.872314 
	C468.170471,1308.872681 467.901367,1309.227417 467.658356,1309.440430 
	C467.408356,1309.659546 467.184082,1309.907959 466.700317,1310.391724 
	C466.588226,1312.442505 466.352814,1314.753540 466.351685,1317.064575 
	C466.330139,1362.367188 466.327118,1407.669800 466.361115,1452.972412 
	C466.362854,1455.284180 466.730988,1457.595825 466.891785,1460.805664 
	C467.005005,1461.424438 467.306091,1461.931641 467.801422,1463.843018 
M748.371216,674.047241 
	C748.371216,638.184753 748.371216,602.322327 748.371216,565.666992 
	C753.414612,565.666992 757.040344,565.667053 760.666077,565.666992 
	C797.992004,565.666565 835.318237,565.765930 872.643677,565.627747 
	C894.869690,565.545410 913.264709,549.727661 916.193237,527.963928 
	C917.339844,519.442017 917.820740,510.728516 917.547485,502.135895 
	C916.588379,471.977448 898.054382,454.338837 867.907959,454.334412 
	C831.915100,454.329163 795.922302,454.346100 759.929443,454.312225 
	C756.378235,454.308899 752.827209,454.018311 749.023071,453.849823 
	C749.023071,416.157166 749.023071,379.370697 749.023071,341.667053 
	C753.313293,341.667053 756.919250,341.667084 760.525208,341.667084 
	C795.184998,341.666931 829.847473,341.899597 864.502502,341.494843 
	C872.672913,341.399445 881.289124,340.433655 888.877258,337.636078 
	C904.733276,331.790253 914.636902,319.919464 916.168152,302.742584 
	C917.132690,291.923340 916.587524,280.950500 916.404053,270.051910 
	C916.037903,248.294754 895.372986,229.309769 870.295593,229.568802 
	C833.306946,229.950897 796.311340,229.681442 759.318726,229.641022 
	C755.820557,229.637207 752.322815,229.288773 748.450317,229.080139 
	C748.079529,191.337723 748.659058,154.834122 748.099121,117.666359 
	C743.505676,117.666359 740.218384,117.666367 736.931091,117.666367 
	C662.945801,117.666344 588.960571,117.666229 514.975281,117.666801 
	C513.308960,117.666817 511.640747,117.623886 509.976593,117.686264 
	C488.891937,118.476608 471.627136,132.424667 467.832367,153.244766 
	C466.064453,162.944641 466.497711,173.089844 466.382416,183.038391 
	C466.062927,210.606689 488.998291,229.139206 511.677002,228.579880 
	C548.647156,227.668076 585.656189,228.334015 622.648865,228.334167 
	C626.204041,228.334183 629.759216,228.334167 633.086304,228.334167 
	C635.300354,241.620209 634.719360,334.989777 632.439575,342.333008 
	C628.959473,342.333008 625.314270,342.332977 621.669006,342.333038 
	C584.676392,342.333496 547.683472,342.256287 510.691193,342.364441 
	C489.444122,342.426544 471.730682,356.454742 467.917023,377.139404 
	C466.247894,386.192596 466.723572,395.651154 466.344971,404.930511 
	C465.179993,433.483368 486.216003,454.196350 514.842163,453.789764 
	C550.827759,453.278625 586.826050,453.666962 622.818909,453.667145 
	C626.357483,453.667145 629.896118,453.667114 633.706665,453.667114 
	C633.706665,491.807556 633.706665,528.607056 633.706665,566.333008 
	C629.513367,566.333008 625.925049,566.332947 622.336792,566.333008 
	C586.343933,566.333618 550.350586,566.212891 514.358459,566.376404 
	C489.248566,566.490417 470.491547,581.221313 467.161957,604.943604 
	C465.519196,616.647827 466.049774,628.908936 467.377747,640.717773 
	C469.244568,657.318359 479.329193,668.880310 494.681458,674.749207 
	C501.620270,677.401794 509.631775,678.109985 517.171265,678.182556 
	C552.494263,678.522400 587.822388,678.321777 623.148682,678.353271 
	C626.667603,678.356384 630.186279,678.624329 633.717468,678.769836 
	C633.717468,716.830261 633.717468,753.685425 633.717468,791.665833 
	C629.542114,791.665833 625.968140,791.665771 622.394165,791.665833 
	C585.068237,791.666565 547.737000,792.039856 510.418823,791.504333 
	C492.843170,791.252136 470.130524,806.044067 467.170715,828.348450 
	C466.841644,828.893433 466.751007,829.475464 466.462677,831.907104 
	C466.603485,842.564026 466.744324,853.220886 466.847290,864.790405 
	C466.967377,865.417358 467.275269,865.931946 467.795593,867.830078 
	C471.767242,889.065552 492.633423,903.042603 512.784729,902.574890 
	C549.406982,901.724915 586.063171,902.333984 622.705200,902.334106 
	C626.254883,902.334106 629.804504,902.334167 633.129456,902.334167 
	C635.207214,915.311218 634.686523,1007.762512 632.487244,1015.665894 
	C629.127502,1015.665894 625.514343,1015.665894 621.901184,1015.665894 
	C587.924011,1015.666016 553.946838,1015.641113 519.969788,1015.695435 
	C515.317566,1015.702881 510.638092,1015.855042 506.019470,1016.371338 
	C492.325623,1017.902405 481.600922,1024.474609 473.923981,1035.944946 
	C463.298615,1051.820679 462.857239,1089.893066 473.081909,1105.961792 
	C482.724640,1121.115967 497.070099,1127.530273 514.455383,1127.613159 
	C550.763489,1127.786011 587.072998,1127.653564 623.381897,1127.688477 
	C626.883423,1127.691772 630.384705,1127.989868 634.332153,1128.171631 
	C634.332153,1149.698975 634.683533,1170.007446 634.249573,1190.298950 
	C633.603088,1220.527588 656.120728,1240.196899 683.414429,1239.878418 
	C742.366821,1239.190674 801.332703,1239.667358 860.293091,1239.666626 
	C864.956604,1239.666504 869.628845,1239.843384 874.282166,1239.622925 
	C897.409790,1238.527832 915.278381,1220.884766 916.829590,1197.651855 
	C917.158386,1197.106689 917.248962,1196.524536 917.536926,1194.110596 
	C917.577393,1188.115845 917.805725,1182.115356 917.627258,1176.127197 
	C916.628296,1142.600098 892.219421,1127.312256 868.044678,1128.049194 
	C832.103638,1129.144775 796.104492,1128.332764 760.130066,1128.332642 
	C756.571838,1128.332642 753.013611,1128.332764 749.689697,1128.332764 
	C747.408569,1115.730103 747.916016,1021.957886 750.287231,1014.334045 
	C753.702637,1014.334045 757.333374,1014.334045 760.964050,1014.334045 
	C798.270874,1014.333862 835.578674,1014.471863 872.883362,1014.189392 
	C878.717224,1014.145325 885.028687,1013.276917 890.269104,1010.908508 
	C905.151489,1004.182312 915.152954,992.863525 916.210205,975.956726 
	C916.971252,963.785156 917.285583,951.392151 915.878174,939.321838 
	C913.496826,918.898926 894.130920,903.792542 871.669556,903.706787 
	C834.363220,903.564392 797.056091,903.679871 759.749268,903.644226 
	C756.217712,903.640869 752.686401,903.335815 749.363586,903.180603 
	C747.196594,887.697937 747.943848,797.685059 750.340637,790.333984 
	C754.108826,790.333984 758.081299,790.334045 762.053772,790.333923 
	C798.361267,790.333008 834.669861,790.163940 870.975952,790.388977 
	C895.875977,790.543335 915.933594,771.358459 916.373291,750.301331 
	C916.600708,739.410095 916.694885,728.497498 916.288269,717.615540 
	C915.559509,698.114136 896.212280,680.618774 878.750671,679.648804 
	C871.801086,679.262756 864.859375,678.436951 857.910217,678.389832 
	C821.943909,678.146362 785.976379,678.090088 749.641174,677.187805 
	C749.347412,676.682861 748.966614,676.255615 748.371216,674.047241 
M1893.527100,2442.124023 
	C1893.568359,2441.125244 1893.645752,2440.126709 1893.645752,2439.127930 
	C1893.656128,2290.475098 1893.663818,2141.822021 1893.639648,1993.169067 
	C1893.639282,1990.596313 1893.250366,1988.023560 1892.952515,1984.333008 
	C1887.876709,1984.333008 1883.300049,1984.333130 1878.723389,1984.333130 
	C1548.753784,1984.333130 1218.784058,1984.332886 888.814392,1984.332275 
	C885.481384,1984.332153 882.146545,1984.391602 878.815674,1984.303345 
	C864.460083,1983.923340 852.552734,1978.718506 842.933716,1967.635620 
	C806.525330,1925.687744 769.688660,1884.110107 733.459656,1842.008911 
	C727.077087,1834.591919 720.742310,1831.407471 710.751648,1831.431274 
	C566.765686,1831.774536 422.778656,1831.666138 278.791870,1831.666138 
	C227.796555,1831.666138 176.801254,1831.658447 125.805946,1831.681763 
	C121.954025,1831.683594 118.102196,1831.906738 113.666252,1832.045166 
	C113.666252,1836.559326 113.666252,1839.857788 113.666252,1843.156250 
	C113.666267,2040.804810 113.661354,2238.453369 113.698784,2436.101807 
	C113.699600,2440.419678 113.702667,2444.831299 114.518181,2449.041260 
	C123.619400,2496.025879 164.305084,2522.454590 201.916092,2522.443115 
	C736.200317,2522.281982 1270.484497,2522.322754 1804.768799,2522.376953 
	C1824.500488,2522.378906 1842.235229,2516.598389 1857.763428,2504.711914 
	C1877.014893,2489.975342 1889.597900,2471.018066 1892.794922,2445.657227 
	C1893.112427,2445.119141 1893.199707,2444.545898 1893.527100,2442.124023 
M1347.663696,199.484421 
	C1347.663696,324.740448 1347.630249,449.996490 1347.753418,575.252441 
	C1347.760254,582.177002 1348.355591,589.261658 1349.884888,595.997559 
	C1358.655396,634.624573 1394.060181,664.245239 1431.829834,664.284058 
	C1561.082520,664.416870 1690.335449,664.337891 1819.588257,664.311707 
	C1821.741577,664.311279 1823.894897,663.956909 1824.743896,663.882263 
	C1665.894409,505.032532 1506.894043,346.032043 1347.663696,186.801559 
	C1347.663696,189.932831 1347.663696,193.794922 1347.663696,199.484421 
z"/>
<path fill="#4C6971" opacity="1.000000" stroke="none" 
	d="
M1892.206787,2446.323242 
	C1889.597900,2471.018066 1877.014893,2489.975342 1857.763428,2504.711914 
	C1842.235229,2516.598389 1824.500488,2522.378906 1804.768799,2522.376953 
	C1270.484497,2522.322754 736.200317,2522.281982 201.916092,2522.443115 
	C164.305084,2522.454590 123.619400,2496.025879 114.518181,2449.041260 
	C113.702667,2444.831299 113.699600,2440.419678 113.698784,2436.101807 
	C113.661354,2238.453369 113.666267,2040.804810 113.666252,1843.156250 
	C113.666252,1839.857788 113.666252,1836.559326 113.666252,1832.045166 
	C118.102196,1831.906738 121.954025,1831.683594 125.805946,1831.681763 
	C176.801254,1831.658447 227.796555,1831.666138 278.791870,1831.666138 
	C422.778656,1831.666138 566.765686,1831.774536 710.751648,1831.431274 
	C720.742310,1831.407471 727.077087,1834.591919 733.459656,1842.008911 
	C769.688660,1884.110107 806.525330,1925.687744 842.933716,1967.635620 
	C852.552734,1978.718506 864.460083,1983.923340 878.815674,1984.303345 
	C882.146545,1984.391602 885.481384,1984.332153 888.814392,1984.332275 
	C1218.784058,1984.332886 1548.753784,1984.333130 1878.723389,1984.333130 
	C1883.300049,1984.333130 1887.876709,1984.333008 1892.952515,1984.333008 
	C1893.250366,1988.023560 1893.639282,1990.596313 1893.639648,1993.169067 
	C1893.663818,2141.822021 1893.656128,2290.475098 1893.645752,2439.127930 
	C1893.645752,2440.126709 1893.568359,2441.125244 1892.973633,2443.348389 
	C1892.098755,2445.125732 1892.027588,2445.709229 1892.206787,2446.323242 
M150.832458,2089.215576 
	C150.557709,2091.845215 150.043900,2094.474854 150.042740,2097.104492 
	C150.001175,2191.608887 149.987183,2286.113281 150.097000,2380.617676 
	C150.100601,2383.714355 151.432083,2386.809570 153.900467,2390.179688 
	C159.258530,2390.065186 164.616577,2389.950684 171.828018,2390.111572 
	C181.889893,2390.015625 191.951752,2389.919678 203.841110,2390.146240 
	C211.883347,2390.035645 219.925568,2389.925049 229.825531,2390.093506 
	C241.199051,2389.994873 252.572586,2389.896240 265.795593,2390.126953 
	C274.581604,2390.408447 283.367584,2390.690186 292.809265,2391.471924 
	C293.826202,2391.292480 294.843170,2391.112793 297.316895,2390.447266 
	C298.849365,2390.417969 300.381836,2390.388672 302.450958,2390.595947 
	C303.070404,2390.682861 303.603180,2390.507324 305.741180,2389.762207 
	C323.707977,2388.455078 341.410675,2385.570557 357.677979,2377.532959 
	C382.883820,2365.078613 397.225739,2345.025635 399.111389,2314.971924 
	C398.846985,2309.217773 398.582611,2303.463379 398.275177,2296.020508 
	C397.175873,2276.508545 389.529663,2260.154297 374.572998,2247.440674 
	C365.893677,2240.062988 356.076996,2234.694092 345.095612,2231.480957 
	C342.557251,2230.738281 340.151917,2229.541260 335.870178,2227.826416 
	C365.904144,2218.084473 386.519073,2202.532471 389.304382,2169.109863 
	C388.971832,2163.304932 388.639282,2157.500244 388.250854,2150.056152 
	C386.041901,2128.105957 374.549469,2112.454834 355.619049,2101.785889 
	C338.986298,2092.411865 320.655090,2089.645752 301.602478,2087.450684 
	C301.019989,2087.198730 300.456635,2087.236084 298.054535,2087.705811 
	C284.692261,2087.865234 271.329987,2088.024414 256.115875,2087.898926 
	C222.076385,2087.979004 188.036911,2088.058838 153.046432,2087.926025 
	C153.046432,2087.926025 152.087143,2088.096191 150.832458,2089.215576 
M817.846985,2348.170654 
	C818.317627,2349.660400 818.788269,2351.150146 819.256531,2353.122559 
	C819.256531,2353.122559 819.931946,2353.790039 820.162781,2354.994141 
	C820.794922,2356.027100 821.427063,2357.060059 822.235352,2359.096436 
	C822.830750,2359.902588 823.426147,2360.708496 824.589050,2362.684326 
	C826.591614,2365.179443 828.594116,2367.674805 830.653748,2370.241211 
	C801.170959,2388.591309 793.185181,2404.173584 798.916748,2430.666260 
	C803.333557,2451.082031 821.170837,2465.949463 843.330322,2470.286377 
	C848.130066,2471.352051 852.929810,2472.417725 859.393250,2473.934326 
	C868.100464,2474.803711 876.807617,2475.672852 886.939392,2477.336426 
	C891.317139,2477.371582 895.694946,2477.406738 901.540955,2477.496826 
	C903.010193,2477.506836 904.479370,2477.516602 907.767090,2477.918457 
	C916.600464,2477.410645 925.433838,2476.902832 935.145508,2476.184326 
	C935.145508,2476.184326 935.992737,2475.871338 937.780334,2476.141846 
	C959.203064,2475.451172 979.901245,2471.643066 998.487488,2460.379639 
	C1013.455566,2451.308350 1022.550903,2438.064941 1025.100220,2419.187500 
	C1025.218018,2417.430908 1025.335815,2415.674561 1025.531982,2412.284424 
	C1025.504517,2409.560059 1025.477051,2406.835449 1025.711304,2402.780029 
	C1025.254639,2401.080078 1024.798096,2399.380127 1024.242554,2396.088379 
	C1021.170044,2376.435547 1010.958191,2361.685791 993.674377,2351.899414 
	C977.629761,2342.814941 960.237122,2339.498535 940.104126,2339.929199 
	C922.054993,2339.673828 904.005798,2339.418213 885.212708,2338.654541 
	C884.660767,2338.380615 884.076721,2338.240479 882.037415,2338.067139 
	C877.179138,2336.677979 873.431946,2334.009033 874.149719,2328.451172 
	C874.832581,2323.164307 878.998535,2320.812988 883.829834,2320.005615 
	C888.670227,2319.197021 893.576294,2318.594971 898.475342,2318.364990 
	C907.002808,2317.964355 915.546997,2317.919189 925.554993,2317.795898 
	C928.365967,2317.214355 931.176880,2316.633057 934.036377,2316.085449 
	C934.036377,2316.085449 934.066772,2316.034668 935.696533,2316.133301 
	C939.925964,2315.258301 944.275879,2314.759766 948.366516,2313.451172 
	C995.834229,2298.262939 1014.830566,2259.874268 1003.775208,2215.460449 
	C1000.722168,2203.195312 994.101990,2192.859863 985.227234,2184.000244 
	C981.335144,2180.114746 981.129517,2175.844727 982.918579,2171.161621 
	C984.691284,2166.521484 988.799011,2166.332520 992.900208,2166.272949 
	C1000.560791,2166.161621 1008.221313,2166.046387 1017.040771,2164.719727 
	C1017.265381,2150.960449 1017.533386,2137.201660 1017.633667,2123.441650 
	C1017.641846,2122.320068 1016.503662,2121.189941 1014.046265,2119.869385 
	C1003.812012,2120.032715 993.497192,2119.437988 983.359985,2120.514893 
	C961.202576,2122.868164 949.633911,2133.406738 943.767090,2154.766113 
	C943.129578,2157.087158 941.242920,2159.064697 938.469788,2160.553223 
	C936.357300,2160.352539 934.244751,2160.151855 931.133118,2159.268555 
	C929.569214,2159.149414 928.005310,2159.030518 924.954956,2158.590820 
	C923.943787,2158.536865 922.932556,2158.482910 920.999573,2158.126221 
	C920.999573,2158.126221 920.033142,2158.213623 918.209229,2157.944580 
	C911.448914,2158.045898 904.688599,2158.146973 896.393799,2158.165039 
	C893.419800,2158.718262 890.445801,2159.271240 885.871155,2159.758789 
	C874.530457,2161.164551 863.715088,2164.189697 852.565247,2170.524658 
	C830.671997,2182.486084 816.415771,2199.871826 812.844788,2226.535889 
	C812.770020,2228.336426 812.695190,2230.137207 812.451477,2233.692871 
	C812.510315,2237.801270 812.569153,2241.909668 812.384155,2247.331055 
	C812.849365,2249.008545 813.314575,2250.686035 813.810669,2253.920410 
	C817.001709,2272.762451 826.507568,2287.701172 841.573547,2299.320557 
	C842.857544,2300.310791 843.209839,2302.509277 842.572083,2304.236572 
	C829.665161,2309.236328 820.121643,2317.241943 817.167175,2333.124512 
	C817.377930,2337.616211 817.588745,2342.107666 817.846985,2348.170654 
M1732.422241,2158.024414 
	C1729.430054,2158.625977 1726.437866,2159.227539 1721.807129,2159.756348 
	C1685.126465,2162.380127 1645.492188,2190.518311 1644.487061,2225.637451 
	C1665.055908,2229.057129 1685.562012,2233.759033 1706.679199,2235.654297 
	C1707.829224,2232.040527 1708.631714,2229.540283 1709.420898,2227.035645 
	C1715.095337,2209.030029 1724.658203,2201.321045 1743.208618,2199.852295 
	C1745.527100,2199.668701 1747.859009,2199.653320 1751.669067,2199.970703 
	C1766.123657,2201.818115 1775.156616,2209.846924 1778.696899,2223.936279 
	C1779.499146,2227.129395 1779.973022,2230.453125 1780.168213,2233.742188 
	C1781.141602,2250.147705 1780.961304,2250.112061 1764.333496,2250.375000 
	C1755.462646,2250.515137 1746.602783,2251.365234 1735.948242,2251.795166 
	C1710.178467,2251.991455 1685.879395,2257.683350 1663.655884,2271.136475 
	C1625.382935,2294.305176 1626.835205,2346.289307 1647.611694,2369.880127 
	C1661.318848,2385.443848 1679.217407,2392.468018 1700.732788,2395.144531 
	C1703.159180,2395.323242 1705.585693,2395.501953 1709.763794,2395.757812 
	C1713.854004,2395.655762 1717.944092,2395.553711 1723.464966,2395.700195 
	C1725.782227,2395.226074 1728.099365,2394.751709 1731.891357,2394.215332 
	C1733.340820,2393.969971 1734.790283,2393.724609 1737.307861,2393.398438 
	C1738.272461,2392.951416 1739.237061,2392.504395 1741.580078,2392.062744 
	C1743.730957,2391.331543 1745.881958,2390.600586 1749.152954,2389.743408 
	C1750.107056,2389.171875 1751.061157,2388.600342 1752.004761,2388.003418 
	C1752.004761,2388.003418 1752.036621,2388.027344 1753.419678,2387.750000 
	C1766.863770,2382.793701 1775.535156,2371.769043 1785.259521,2361.063965 
	C1786.804077,2364.033447 1787.674805,2365.791504 1788.619141,2367.509033 
	C1793.954956,2377.213379 1801.154541,2385.361572 1812.439941,2387.063232 
	C1827.159424,2389.282471 1842.087524,2390.209473 1856.954590,2391.303711 
	C1861.659424,2391.649902 1864.193115,2388.703857 1864.173096,2383.765381 
	C1864.132812,2373.776611 1864.278931,2363.786377 1864.183350,2353.798584 
	C1864.155762,2350.908447 1863.567749,2348.023438 1863.197510,2344.794434 
	C1859.917236,2344.373047 1857.339966,2343.989014 1854.750854,2343.718994 
	C1846.381836,2342.846436 1846.088013,2342.608887 1843.724976,2332.068604 
	C1843.799561,2304.821045 1843.925537,2277.573730 1843.873657,2250.326416 
	C1843.868164,2247.432617 1842.820068,2244.540771 1842.269653,2239.896973 
	C1842.473877,2228.065918 1839.951050,2216.711426 1835.870483,2205.715332 
	C1827.659180,2183.587646 1812.055786,2169.162842 1789.477173,2162.481445 
	C1776.619507,2158.676514 1763.461548,2156.786865 1748.223633,2157.886719 
	C1743.469604,2157.956543 1738.715698,2158.026367 1732.422241,2158.024414 
M1286.686890,2388.830566 
	C1286.959351,2389.427002 1287.410645,2389.816650 1289.469727,2390.761475 
	C1293.082153,2391.104492 1296.704712,2391.819824 1300.305298,2391.723389 
	C1313.259888,2391.376221 1326.207764,2390.775391 1339.156128,2390.221436 
	C1342.085693,2390.096191 1345.006592,2389.772461 1348.815796,2389.469971 
	C1349.118774,2384.731201 1349.620117,2380.516357 1349.623169,2376.301025 
	C1349.672363,2309.315674 1349.663696,2242.330078 1349.641479,2175.344727 
	C1349.640259,2171.684082 1349.404785,2168.023682 1348.141235,2163.262695 
	C1346.885254,2162.911865 1345.630981,2162.262207 1344.373047,2162.255127 
	C1327.239746,2162.157715 1310.105469,2162.072021 1292.973267,2162.219727 
	C1290.878540,2162.237549 1288.795654,2163.627441 1286.511841,2166.197510 
	C1286.524170,2240.106689 1286.536621,2314.015869 1286.686890,2388.830566 
M654.676758,2157.954346 
	C653.805725,2158.060547 652.934753,2158.166504 650.454224,2158.238037 
	C648.861145,2158.457275 647.268066,2158.676758 644.571899,2158.679199 
	C643.544434,2159.061279 642.516968,2159.443604 639.867310,2159.759521 
	C607.397339,2164.329834 582.193909,2180.556641 564.575195,2207.994629 
	C548.951904,2232.325195 544.119690,2259.401123 546.264221,2289.394287 
	C546.752625,2291.724121 547.241028,2294.053955 547.112488,2297.606934 
	C555.032227,2348.835938 591.153564,2389.781494 646.763489,2395.045898 
	C648.542786,2395.150635 650.322021,2395.255371 653.894531,2395.482666 
	C659.886780,2395.438477 665.879028,2395.394531 673.253967,2395.651611 
	C675.038879,2395.205078 676.823853,2394.758789 679.317810,2394.203369 
	C679.317810,2394.203369 679.967651,2393.899902 681.634216,2394.108887 
	C725.897461,2387.883301 755.648071,2363.479736 771.292786,2321.887207 
	C777.459412,2305.492676 778.570374,2288.260254 778.302185,2270.817871 
	C777.397522,2211.972168 736.951843,2164.547363 678.442871,2158.634277 
	C676.930969,2158.553955 675.419006,2158.473633 672.476685,2157.987061 
	C670.999390,2158.058105 669.522034,2158.129150 666.335266,2157.933838 
	C662.883057,2158.020508 659.430908,2158.107178 654.676758,2157.954346 
M438.190887,2349.626465 
	C442.690491,2375.315674 455.218689,2387.612549 481.090698,2389.541992 
	C496.551605,2390.694824 512.162231,2389.839844 528.990784,2388.780273 
	C529.216187,2374.972656 529.486877,2361.165527 529.579041,2347.357178 
	C529.586243,2346.280762 528.343384,2345.196045 525.919556,2343.899658 
	C521.360596,2343.853760 516.797913,2343.674561 512.243591,2343.799072 
	C507.581512,2343.926514 504.008087,2342.297119 501.866272,2336.295898 
	C501.910828,2302.696289 501.980652,2269.096680 501.994080,2235.497070 
	C502.014160,2185.262695 502.025970,2135.028564 501.965881,2084.794189 
	C501.953583,2074.519287 501.494537,2074.107910 491.277527,2074.038330 
	C476.640411,2073.938965 462.000122,2073.880371 447.366028,2074.110840 
	C444.269043,2074.159668 441.192841,2075.528564 437.882477,2078.115967 
	C437.846588,2140.401855 437.826569,2202.687744 437.767426,2264.973633 
	C437.741821,2291.951172 437.635559,2318.928467 437.331299,2346.451660 
	C437.239532,2347.074463 437.405396,2347.620361 438.190887,2349.626465 
M1493.111938,2388.431396 
	C1493.341553,2374.911621 1493.615234,2361.391846 1493.720947,2347.871094 
	C1493.729858,2346.738281 1492.610107,2345.596436 1490.227173,2344.082520 
	C1485.064087,2343.958740 1479.901245,2343.820557 1474.737793,2343.715332 
	C1470.553223,2343.629883 1467.127197,2342.345703 1465.785767,2336.193115 
	C1465.854248,2252.219727 1465.922729,2168.246094 1465.990723,2084.272705 
	C1465.990967,2083.939453 1465.993042,2083.605957 1465.976685,2083.273193 
	C1465.573730,2075.102539 1464.853149,2074.162109 1456.500366,2074.069824 
	C1440.840454,2073.896484 1425.176025,2073.932373 1409.516357,2074.120605 
	C1407.020508,2074.150391 1404.539673,2075.425537 1401.874390,2077.977051 
	C1401.840698,2166.492676 1401.799316,2255.008057 1401.803345,2343.523682 
	C1401.803589,2346.839844 1402.014648,2350.192139 1402.524170,2353.465820 
	C1404.534912,2366.386230 1410.906616,2376.938232 1422.403687,2382.988281 
	C1429.279541,2386.606445 1437.421265,2389.094482 1445.145508,2389.556641 
	C1460.704468,2390.487549 1476.367065,2389.686523 1493.111938,2388.431396 
M1578.843018,2391.155273 
	C1590.013672,2390.827148 1601.184326,2390.499023 1613.415894,2388.843994 
	C1614.948486,2374.349609 1614.582886,2359.889160 1613.431519,2344.508545 
	C1607.839966,2344.228271 1602.967285,2343.891602 1598.089233,2343.766602 
	C1593.545898,2343.650146 1589.416382,2342.976807 1587.767456,2336.191406 
	C1587.840332,2334.194092 1587.976807,2332.197021 1587.977173,2330.199707 
	C1587.990112,2248.901123 1587.990723,2167.602539 1587.991821,2086.303955 
	C1587.991821,2085.304443 1588.009766,2084.303223 1587.962280,2083.305664 
	C1587.572388,2075.113525 1586.850830,2074.168945 1578.524902,2074.076660 
	C1562.866943,2073.902832 1547.204712,2073.941895 1531.546997,2074.127686 
	C1529.045044,2074.157227 1526.557495,2075.410156 1523.871582,2077.951904 
	C1523.837769,2166.525146 1523.797729,2255.098633 1523.796753,2343.671875 
	C1523.796631,2346.658936 1524.000610,2349.672852 1524.428223,2352.628418 
	C1527.054077,2370.776855 1538.628174,2383.783203 1556.541016,2387.866943 
	C1563.291870,2389.406006 1570.362427,2389.542236 1578.843018,2391.155273 
M1159.634644,2219.688721 
	C1121.740112,2261.108643 1083.845581,2302.528564 1044.965942,2345.303467 
	C1044.743408,2359.052002 1044.478149,2372.800537 1044.377197,2386.549805 
	C1044.369019,2387.682373 1045.476807,2388.822998 1047.922729,2390.167236 
	C1110.423340,2390.181396 1172.924072,2390.207764 1235.424683,2390.172119 
	C1238.619019,2390.170410 1241.812988,2389.635986 1245.897705,2389.269531 
	C1246.089355,2371.968262 1246.917358,2355.563232 1245.370850,2337.930908 
	C1205.770386,2337.761719 1166.979004,2337.595947 1128.122437,2336.240967 
	C1128.051147,2335.449707 1127.979858,2334.658447 1128.681030,2332.792725 
	C1137.943237,2322.815186 1147.196045,2312.828613 1156.469849,2302.861816 
	C1184.062134,2273.208008 1211.738770,2243.631836 1239.128784,2213.792725 
	C1241.564087,2211.140137 1243.283569,2206.832275 1243.401367,2203.229980 
	C1243.824463,2190.290283 1243.417114,2177.323242 1242.203247,2163.239258 
	C1238.277710,2162.839600 1234.352905,2162.101318 1230.426514,2162.092773 
	C1189.541138,2162.005127 1148.655518,2162.038574 1107.769897,2162.029541 
	C1091.482300,2162.025879 1075.193481,2161.870117 1058.907837,2162.039795 
	C1051.176270,2162.120361 1050.185791,2163.107178 1050.058716,2170.674072 
	C1049.846680,2183.301514 1049.885498,2195.937500 1050.095825,2208.564941 
	C1050.137085,2211.037109 1051.437134,2213.487793 1054.003540,2216.138916 
	C1057.662964,2216.176025 1061.322266,2216.235352 1064.981812,2216.247314 
	C1096.587036,2216.349365 1128.192383,2216.442871 1160.018311,2217.563232 
	C1160.116089,2217.898438 1160.213745,2218.233398 1159.634644,2219.688721 
M1341.486450,2130.853271 
	C1355.325562,2122.142334 1360.057861,2109.023438 1359.661743,2093.395020 
	C1359.237915,2076.672852 1352.660767,2063.108154 1336.656250,2057.069336 
	C1320.082520,2050.815674 1303.173706,2050.914795 1288.982910,2063.802490 
	C1273.439575,2077.918457 1271.923584,2105.247803 1284.793213,2122.170166 
	C1290.353149,2129.480957 1297.395996,2134.116699 1306.136230,2135.444580 
	C1317.683716,2137.198975 1329.352783,2137.651367 1341.486450,2130.853271 
z"/>
<path fill="#4C6971" opacity="1.000000" stroke="none" 
	d="
M916.230652,1198.328247 
	C915.278381,1220.884766 897.409790,1238.527832 874.282166,1239.622925 
	C869.628845,1239.843384 864.956604,1239.666504 860.293091,1239.666626 
	C801.332703,1239.667358 742.366821,1239.190674 683.414429,1239.878418 
	C656.120728,1240.196899 633.603088,1220.527588 634.249573,1190.298950 
	C634.683533,1170.007446 634.332153,1149.698975 634.332153,1128.171631 
	C630.384705,1127.989868 626.883423,1127.691772 623.381897,1127.688477 
	C587.072998,1127.653564 550.763489,1127.786011 514.455383,1127.613159 
	C497.070099,1127.530273 482.724640,1121.115967 473.081909,1105.961792 
	C462.857239,1089.893066 463.298615,1051.820679 473.923981,1035.944946 
	C481.600922,1024.474609 492.325623,1017.902405 506.019470,1016.371338 
	C510.638092,1015.855042 515.317566,1015.702881 519.969788,1015.695435 
	C553.946838,1015.641113 587.924011,1015.666016 621.901184,1015.665894 
	C625.514343,1015.665894 629.127502,1015.665894 632.487244,1015.665894 
	C634.686523,1007.762512 635.207214,915.311218 633.129456,902.334167 
	C629.804504,902.334167 626.254883,902.334106 622.705200,902.334106 
	C586.063171,902.333984 549.406982,901.724915 512.784729,902.574890 
	C492.633423,903.042603 471.767242,889.065552 467.829712,866.617432 
	C467.778412,864.741394 467.452179,864.232422 466.885132,863.877808 
	C466.744324,853.220886 466.603485,842.564026 467.010803,830.681946 
	C467.893127,828.893250 467.963440,828.298401 467.769836,827.672363 
	C470.130524,806.044067 492.843170,791.252136 510.418823,791.504333 
	C547.737000,792.039856 585.068237,791.666565 622.394165,791.665833 
	C625.968140,791.665771 629.542114,791.665833 633.717468,791.665833 
	C633.717468,753.685425 633.717468,716.830261 633.717468,678.769836 
	C630.186279,678.624329 626.667603,678.356384 623.148682,678.353271 
	C587.822388,678.321777 552.494263,678.522400 517.171265,678.182556 
	C509.631775,678.109985 501.620270,677.401794 494.681458,674.749207 
	C479.329193,668.880310 469.244568,657.318359 467.377747,640.717773 
	C466.049774,628.908936 465.519196,616.647827 467.161957,604.943604 
	C470.491547,581.221313 489.248566,566.490417 514.358459,566.376404 
	C550.350586,566.212891 586.343933,566.333618 622.336792,566.333008 
	C625.925049,566.332947 629.513367,566.333008 633.706665,566.333008 
	C633.706665,528.607056 633.706665,491.807556 633.706665,453.667114 
	C629.896118,453.667114 626.357483,453.667145 622.818909,453.667145 
	C586.826050,453.666962 550.827759,453.278625 514.842163,453.789764 
	C486.216003,454.196350 465.179993,433.483368 466.344971,404.930511 
	C466.723572,395.651154 466.247894,386.192596 467.917023,377.139404 
	C471.730682,356.454742 489.444122,342.426544 510.691193,342.364441 
	C547.683472,342.256287 584.676392,342.333496 621.669006,342.333038 
	C625.314270,342.332977 628.959473,342.333008 632.439575,342.333008 
	C634.719360,334.989777 635.300354,241.620209 633.086304,228.334167 
	C629.759216,228.334167 626.204041,228.334183 622.648865,228.334167 
	C585.656189,228.334015 548.647156,227.668076 511.677002,228.579880 
	C488.998291,229.139206 466.062927,210.606689 466.382416,183.038391 
	C466.497711,173.089844 466.064453,162.944641 467.832367,153.244766 
	C471.627136,132.424667 488.891937,118.476608 509.976593,117.686264 
	C511.640747,117.623886 513.308960,117.666817 514.975281,117.666801 
	C588.960571,117.666229 662.945801,117.666344 736.931091,117.666367 
	C740.218384,117.666367 743.505676,117.666359 748.099121,117.666359 
	C748.659058,154.834122 748.079529,191.337723 748.450317,229.080139 
	C752.322815,229.288773 755.820557,229.637207 759.318726,229.641022 
	C796.311340,229.681442 833.306946,229.950897 870.295593,229.568802 
	C895.372986,229.309769 916.037903,248.294754 916.404053,270.051910 
	C916.587524,280.950500 917.132690,291.923340 916.168152,302.742584 
	C914.636902,319.919464 904.733276,331.790253 888.877258,337.636078 
	C881.289124,340.433655 872.672913,341.399445 864.502502,341.494843 
	C829.847473,341.899597 795.184998,341.666931 760.525208,341.667084 
	C756.919250,341.667084 753.313293,341.667053 749.023071,341.667053 
	C749.023071,379.370697 749.023071,416.157166 749.023071,453.849823 
	C752.827209,454.018311 756.378235,454.308899 759.929443,454.312225 
	C795.922302,454.346100 831.915100,454.329163 867.907959,454.334412 
	C898.054382,454.338837 916.588379,471.977448 917.547485,502.135895 
	C917.820740,510.728516 917.339844,519.442017 916.193237,527.963928 
	C913.264709,549.727661 894.869690,565.545410 872.643677,565.627747 
	C835.318237,565.765930 797.992004,565.666565 760.666077,565.666992 
	C757.040344,565.667053 753.414612,565.666992 748.371216,565.666992 
	C748.371216,602.322327 748.371216,638.184753 748.340637,675.508301 
	C748.876465,677.302368 749.442871,677.635437 750.009277,677.968567 
	C785.976379,678.090088 821.943909,678.146362 857.910217,678.389832 
	C864.859375,678.436951 871.801086,679.262756 878.750671,679.648804 
	C896.212280,680.618774 915.559509,698.114136 916.288269,717.615540 
	C916.694885,728.497498 916.600708,739.410095 916.373291,750.301331 
	C915.933594,771.358459 895.875977,790.543335 870.975952,790.388977 
	C834.669861,790.163940 798.361267,790.333008 762.053772,790.333923 
	C758.081299,790.334045 754.108826,790.333984 750.340637,790.333984 
	C747.943848,797.685059 747.196594,887.697937 749.363586,903.180603 
	C752.686401,903.335815 756.217712,903.640869 759.749268,903.644226 
	C797.056091,903.679871 834.363220,903.564392 871.669556,903.706787 
	C894.130920,903.792542 913.496826,918.898926 915.878174,939.321838 
	C917.285583,951.392151 916.971252,963.785156 916.210205,975.956726 
	C915.152954,992.863525 905.151489,1004.182312 890.269104,1010.908508 
	C885.028687,1013.276917 878.717224,1014.145325 872.883362,1014.189392 
	C835.578674,1014.471863 798.270874,1014.333862 760.964050,1014.334045 
	C757.333374,1014.334045 753.702637,1014.334045 750.287231,1014.334045 
	C747.916016,1021.957886 747.408569,1115.730103 749.689697,1128.332764 
	C753.013611,1128.332764 756.571838,1128.332642 760.130066,1128.332642 
	C796.104492,1128.332764 832.103638,1129.144775 868.044678,1128.049194 
	C892.219421,1127.312256 916.628296,1142.600098 917.627258,1176.127197 
	C917.805725,1182.115356 917.577393,1188.115845 916.989014,1195.327148 
	C916.106873,1197.107422 916.036743,1197.702271 916.230652,1198.328247 
z"/>
<path fill="#4D6971" opacity="1.000000" stroke="none" 
	d="
M1347.663696,198.570709 
	C1347.663696,193.794922 1347.663696,189.932831 1347.663696,186.801559 
	C1506.894043,346.032043 1665.894409,505.032532 1824.743896,663.882263 
	C1823.894897,663.956909 1821.741577,664.311279 1819.588257,664.311707 
	C1690.335449,664.337891 1561.082520,664.416870 1431.829834,664.284058 
	C1394.060181,664.245239 1358.655396,634.624573 1349.884888,595.997559 
	C1348.355591,589.261658 1347.760254,582.177002 1347.753418,575.252441 
	C1347.630249,449.996490 1347.663696,324.740448 1347.663696,198.570709 
z"/>
<path fill="#4C6971" opacity="1.000000" stroke="none" 
	d="
M466.928528,1459.907471 
	C466.730988,1457.595825 466.362854,1455.284180 466.361115,1452.972412 
	C466.327118,1407.669800 466.330139,1362.367188 466.351685,1317.064575 
	C466.352814,1314.753540 466.588226,1312.442505 466.700317,1310.391724 
	C467.184082,1309.907959 467.408356,1309.659546 467.658356,1309.440430 
	C467.901367,1309.227417 468.170471,1308.872681 468.428467,1308.872314 
	C614.646057,1308.676758 760.863586,1308.505859 907.081116,1308.335205 
	C910.043091,1308.331665 913.005127,1308.334595 916.663879,1308.334595 
	C917.047241,1311.474976 917.620483,1313.996460 917.623596,1316.518677 
	C917.678467,1360.822021 917.852844,1405.126465 917.578613,1449.428101 
	C917.454468,1469.468750 910.114014,1486.075562 890.726379,1494.541016 
	C884.582214,1497.223755 877.235168,1498.166504 870.435059,1498.180176 
	C762.508606,1498.397095 654.581665,1498.332886 546.654785,1498.332764 
	C534.662903,1498.332764 522.670837,1498.377686 510.679230,1498.321899 
	C488.896759,1498.220703 473.042023,1485.442871 467.839233,1462.628906 
	C467.792389,1460.766724 467.476227,1460.264160 466.928528,1459.907471 
z"/>
<path fill="#D21A1C" opacity="1.000000" stroke="none" 
	d="
M749.825195,677.578186 
	C749.442871,677.635437 748.876465,677.302368 748.404419,676.437622 
	C748.966614,676.255615 749.347412,676.682861 749.825195,677.578186 
z"/>
<path fill="#7E4C52" opacity="1.000000" stroke="none" 
	d="
M916.530151,1197.989990 
	C916.036743,1197.702271 916.106873,1197.107422 916.771118,1196.224487 
	C917.248962,1196.524536 917.158386,1197.106689 916.530151,1197.989990 
z"/>
<path fill="#7E4C52" opacity="1.000000" stroke="none" 
	d="
M466.866211,864.334106 
	C467.452179,864.232422 467.778412,864.741394 467.817383,865.869507 
	C467.275269,865.931946 466.967377,865.417358 466.866211,864.334106 
z"/>
<path fill="#7E4C52" opacity="1.000000" stroke="none" 
	d="
M467.470276,828.010376 
	C467.963440,828.298401 467.893127,828.893250 467.228851,829.775757 
	C466.751007,829.475464 466.841644,828.893433 467.470276,828.010376 
z"/>
<path fill="#784E54" opacity="1.000000" stroke="none" 
	d="
M1892.500854,2445.990234 
	C1892.027588,2445.709229 1892.098755,2445.125732 1892.738525,2444.255371 
	C1893.199707,2444.545898 1893.112427,2445.119141 1892.500854,2445.990234 
z"/>
<path fill="#784E54" opacity="1.000000" stroke="none" 
	d="
M466.910156,1460.356567 
	C467.476227,1460.264160 467.792389,1460.766724 467.835999,1461.871094 
	C467.306091,1461.931641 467.005005,1461.424438 466.910156,1460.356567 
z"/>
<path fill="#A8005B" opacity="1.000000" stroke="none" 
	d="
M1128.187622,2337.430176 
	C1166.979004,2337.595947 1205.770386,2337.761719 1245.370850,2337.930908 
	C1246.917358,2355.563232 1246.089355,2371.968262 1245.897705,2389.269531 
	C1241.812988,2389.635986 1238.619019,2390.170410 1235.424683,2390.172119 
	C1172.924072,2390.207764 1110.423340,2390.181396 1046.955566,2389.129883 
	C1045.975952,2373.377686 1045.963501,2358.662842 1045.951172,2343.948242 
	C1083.845581,2302.528564 1121.740112,2261.108643 1160.220459,2218.846680 
	C1160.469971,2217.516113 1160.133789,2217.027832 1159.797607,2216.539307 
	C1128.192383,2216.442871 1096.587036,2216.349365 1064.981812,2216.247314 
	C1061.322266,2216.235352 1057.662964,2216.176025 1053.020996,2215.110352 
	C1051.996094,2201.445068 1051.858398,2188.807373 1051.939941,2176.171387 
	C1052.013306,2164.795654 1052.894531,2163.931641 1064.740356,2163.919434 
	C1091.678223,2163.892090 1118.615967,2163.980957 1145.553833,2164.053467 
	C1178.143799,2164.141113 1210.733765,2164.260742 1243.323730,2164.366699 
	C1243.417114,2177.323242 1243.824463,2190.290283 1243.401367,2203.229980 
	C1243.283569,2206.832275 1241.564087,2211.140137 1239.128784,2213.792725 
	C1211.738770,2243.631836 1184.062134,2273.208008 1156.469849,2302.861816 
	C1147.196045,2312.828613 1137.943237,2322.815186 1127.908936,2333.637695 
	C1127.487183,2335.465088 1127.837402,2336.447510 1128.187622,2337.430176 
z"/>
<path fill="#ED0D52" opacity="1.000000" stroke="none" 
	d="
M263.946106,2389.797852 
	C252.572586,2389.896240 241.199051,2389.994873 228.156006,2389.631592 
	C218.279495,2387.541504 210.100189,2386.947998 202.013626,2389.823975 
	C191.951752,2389.919678 181.889893,2390.015625 170.180588,2389.653809 
	C163.099609,2388.779785 157.666061,2388.363525 152.174286,2387.014893 
	C152.068802,2324.930908 151.987289,2263.779541 151.986877,2202.627930 
	C151.986633,2165.073730 152.110489,2127.519287 152.498505,2089.678711 
	C153.239670,2089.001221 153.632675,2088.583252 153.997421,2088.138916 
	C188.036911,2088.058838 222.076385,2087.979004 257.281067,2088.694824 
	C265.741669,2096.960938 266.436005,2106.137695 266.184845,2115.992188 
	C265.995117,2123.436035 265.058014,2129.633057 257.654358,2133.314209 
	C256.068665,2134.102539 255.181961,2136.296387 253.153046,2137.981689 
	C249.006287,2138.199707 245.679794,2138.278809 241.411484,2138.262939 
	C236.472458,2138.124023 232.446152,2137.761719 228.486053,2138.123779 
	C224.366791,2138.500488 220.311569,2139.577148 216.224442,2141.263184 
	C216.222122,2162.586182 216.223679,2182.993896 216.833008,2203.974121 
	C221.340775,2205.043213 225.233505,2205.890381 229.142105,2205.971191 
	C241.405807,2206.225098 253.675461,2206.190674 265.953369,2207.188232 
	C265.954437,2222.634033 265.944946,2237.159424 265.005005,2251.740723 
	C251.847610,2251.841309 239.614563,2251.684570 227.397263,2252.052002 
	C223.648270,2252.164795 219.942383,2253.712402 216.216965,2255.502441 
	C216.217178,2283.747070 216.217178,2311.092285 216.217178,2339.305176 
	C230.388397,2339.595215 243.189575,2339.857178 256.240082,2340.761719 
	C258.247498,2343.295654 260.235809,2345.025635 261.702057,2347.120850 
	C263.322174,2349.436035 265.648376,2352.103027 265.612305,2354.587158 
	C265.441986,2366.329590 264.568787,2378.062012 263.946106,2389.797852 
z"/>
<path fill="#E20D53" opacity="1.000000" stroke="none" 
	d="
M253.973297,2137.842773 
	C255.181961,2136.296387 256.068665,2134.102539 257.654358,2133.314209 
	C265.058014,2129.633057 265.995117,2123.436035 266.184845,2115.992188 
	C266.436005,2106.137695 265.741669,2096.960938 258.206970,2088.837158 
	C271.329987,2088.024414 284.692261,2087.865234 299.513306,2087.773926 
	C301.337067,2087.834473 301.701996,2087.827148 302.066956,2087.819580 
	C320.655090,2089.645752 338.986298,2092.411865 355.619049,2101.785889 
	C374.549469,2112.454834 386.041901,2128.105957 388.182129,2151.808594 
	C388.225433,2159.207520 388.337433,2164.854248 388.449432,2170.500977 
	C386.519073,2202.532471 365.904144,2218.084473 335.870178,2227.826416 
	C340.151917,2229.541260 342.557251,2230.738281 345.095612,2231.480957 
	C356.076996,2234.694092 365.893677,2240.062988 374.572998,2247.440674 
	C389.529663,2260.154297 397.175873,2276.508545 398.193970,2297.791016 
	C398.167389,2305.157471 398.222076,2310.753662 398.276764,2316.349609 
	C397.225739,2345.025635 382.883820,2365.078613 357.677979,2377.532959 
	C341.410675,2385.570557 323.707977,2388.455078 304.349426,2389.901123 
	C302.609863,2390.146484 302.262085,2390.252930 301.914307,2390.359131 
	C300.381836,2390.388672 298.849365,2390.417969 295.972534,2390.637695 
	C293.803314,2390.875732 292.978455,2390.923828 292.153595,2390.971680 
	C283.367584,2390.690186 274.581604,2390.408447 264.870850,2389.962402 
	C264.568787,2378.062012 265.441986,2366.329590 265.612305,2354.587158 
	C265.648376,2352.103027 263.322174,2349.436035 261.702057,2347.120850 
	C260.235809,2345.025635 258.247498,2343.295654 257.159180,2340.601074 
	C269.722595,2339.301025 281.644104,2339.160889 293.503815,2338.231689 
	C315.908447,2336.477051 327.533844,2326.092773 332.871796,2303.434814 
	C333.004578,2298.479004 332.831055,2294.187744 332.488770,2289.144531 
	C329.845276,2273.053223 320.930573,2263.053467 306.374176,2258.393555 
	C299.152618,2256.081543 291.535797,2255.004395 283.353821,2253.078613 
	C277.051666,2252.420898 271.493561,2252.052734 265.935425,2251.684814 
	C265.944946,2237.159424 265.954437,2222.634033 266.838074,2207.116455 
	C273.841064,2205.625244 279.969940,2205.125977 286.920624,2204.531006 
	C293.225586,2203.223877 298.898132,2202.547119 304.150482,2200.684814 
	C313.752014,2197.280518 320.767975,2191.103516 322.579315,2179.963867 
	C323.029236,2179.088623 323.089539,2178.544434 323.207703,2177.150879 
	C323.364899,2172.893799 323.301666,2169.468262 323.241516,2165.508789 
	C322.861389,2163.992432 322.478210,2163.010254 321.967712,2161.324707 
	C317.430298,2147.372559 307.396301,2141.576416 293.703918,2139.613281 
	C291.432404,2139.213135 289.756500,2139.039062 287.413940,2138.698975 
	C285.841309,2138.624512 284.935394,2138.715820 283.519440,2138.749756 
	C282.669220,2138.729004 282.329010,2138.765381 281.074219,2138.630615 
	C271.430878,2138.254150 262.702087,2138.048584 253.973297,2137.842773 
z"/>
<path fill="#8C005F" opacity="1.000000" stroke="none" 
	d="
M1587.512207,2338.062744 
	C1589.416382,2342.976807 1593.545898,2343.650146 1598.089233,2343.766602 
	C1602.967285,2343.891602 1607.839966,2344.228271 1613.431519,2344.508545 
	C1614.582886,2359.889160 1614.948486,2374.349609 1611.920166,2389.437500 
	C1599.378784,2390.126709 1588.333130,2390.222168 1577.287354,2390.317871 
	C1570.362427,2389.542236 1563.291870,2389.406006 1556.541016,2387.866943 
	C1538.628174,2383.783203 1527.054077,2370.776855 1524.428223,2352.628418 
	C1524.000610,2349.672852 1523.796631,2346.658936 1523.796753,2343.671875 
	C1523.797729,2255.098633 1523.837769,2166.525146 1524.899780,2076.999023 
	C1540.220947,2076.031006 1554.513916,2075.998291 1568.806885,2076.006104 
	C1585.966553,2076.015381 1585.987305,2076.030273 1585.989136,2092.950439 
	C1585.997803,2169.734131 1585.965820,2246.517822 1586.059326,2323.301514 
	C1586.065308,2328.222412 1587.006226,2333.142334 1587.512207,2338.062744 
z"/>
<path fill="#95005D" opacity="1.000000" stroke="none" 
	d="
M1465.529907,2338.063232 
	C1467.127197,2342.345703 1470.553223,2343.629883 1474.737793,2343.715332 
	C1479.901245,2343.820557 1485.064087,2343.958740 1491.107544,2345.171875 
	C1491.987549,2360.707520 1491.987183,2375.153809 1491.986816,2389.600342 
	C1476.367065,2389.686523 1460.704468,2390.487549 1445.145508,2389.556641 
	C1437.421265,2389.094482 1429.279541,2386.606445 1422.403687,2382.988281 
	C1410.906616,2376.938232 1404.534912,2366.386230 1402.524170,2353.465820 
	C1402.014648,2350.192139 1401.803589,2346.839844 1401.803345,2343.523682 
	C1401.799316,2255.008057 1401.840698,2166.492676 1402.896484,2077.014160 
	C1418.215454,2076.031250 1432.512329,2075.993164 1446.809082,2075.995361 
	C1463.993408,2075.998047 1464.012329,2076.012939 1464.014038,2092.883789 
	C1464.021729,2169.688721 1463.989868,2246.493896 1464.082642,2323.298828 
	C1464.088501,2328.220703 1465.026001,2333.141846 1465.529907,2338.063232 
z"/>
<path fill="#D90D55" opacity="1.000000" stroke="none" 
	d="
M527.705505,2389.887451 
	C512.162231,2389.839844 496.551605,2390.694824 481.090698,2389.541992 
	C455.218689,2387.612549 442.690491,2375.315674 438.016663,2348.302734 
	C437.750275,2346.621582 437.658112,2346.263916 437.565918,2345.906006 
	C437.635559,2318.928467 437.741821,2291.951172 437.767426,2264.973633 
	C437.826569,2202.687744 437.846588,2140.401855 438.925659,2077.133789 
	C454.275482,2076.106934 468.582123,2076.030029 482.888794,2076.025635 
	C499.975098,2076.020508 499.991455,2076.047363 499.992950,2092.888184 
	C499.999786,2169.749512 499.966156,2246.611084 500.068542,2323.472412 
	C500.075073,2328.381104 501.107574,2333.288330 501.662781,2338.196289 
	C504.008087,2342.297119 507.581512,2343.926514 512.243591,2343.799072 
	C516.797913,2343.674561 521.360596,2343.853760 526.863892,2344.938477 
	C527.773987,2360.613770 527.739746,2375.250732 527.705505,2389.887451 
z"/>
<path fill="#CD0D55" opacity="1.000000" stroke="none" 
	d="
M679.967651,2393.899902 
	C679.967651,2393.899902 679.317810,2394.203369 678.267456,2394.196777 
	C675.435181,2394.576904 673.653198,2394.963623 671.871277,2395.350586 
	C665.879028,2395.394531 659.886780,2395.438477 652.390869,2395.147217 
	C649.138916,2394.631348 647.390503,2394.450684 645.642151,2394.270264 
	C591.153564,2389.781494 555.032227,2348.835938 547.489990,2296.274658 
	C547.437805,2292.615723 547.008057,2290.288818 546.578369,2287.962158 
	C544.119690,2259.401123 548.951904,2232.325195 564.575195,2207.994629 
	C582.193909,2180.556641 607.397339,2164.329834 641.219604,2159.750488 
	C643.606262,2159.459961 644.640625,2159.177979 645.675049,2158.895996 
	C647.268066,2158.676758 648.861145,2158.457275 651.635620,2158.429932 
	C653.870972,2158.479248 654.924805,2158.336670 655.978699,2158.193848 
	C659.430908,2158.107178 662.883057,2158.020508 667.646729,2158.316162 
	C670.607788,2158.596680 672.257446,2158.494873 673.907104,2158.393555 
	C675.419006,2158.473633 676.930969,2158.553955 679.313721,2159.562500 
	C680.726074,2172.393799 681.583008,2184.295898 681.607788,2196.199951 
	C681.614807,2199.561768 679.187378,2202.928955 677.390686,2206.247803 
	C676.904846,2206.201904 675.986877,2205.870605 675.396118,2205.555176 
	C673.067444,2204.875244 671.329590,2204.510742 668.735535,2204.190918 
	C646.459717,2202.990234 630.524414,2211.728271 621.644226,2231.287598 
	C617.888855,2239.559082 616.339722,2248.832031 613.591431,2258.127930 
	C613.392395,2259.620361 613.389832,2260.634521 613.064209,2262.552734 
	C612.766357,2272.323730 612.791443,2281.191162 612.786865,2290.694824 
	C613.106689,2292.992676 613.456177,2294.653809 613.848389,2297.095703 
	C615.381104,2303.583984 616.452942,2309.441406 618.438782,2314.970947 
	C624.577271,2332.062500 635.376465,2344.458252 654.610718,2348.856445 
	C660.239014,2348.972168 665.178650,2348.780029 670.800293,2348.423828 
	C672.872070,2348.117920 674.261780,2347.976074 676.263794,2348.279541 
	C680.859558,2351.486328 682.120056,2355.560303 681.903748,2360.078125 
	C681.363708,2371.357178 680.626038,2382.626709 679.967651,2393.899902 
z"/>
<path fill="#BA0158" opacity="1.000000" stroke="none" 
	d="
M885.956665,2339.162598 
	C904.005798,2339.418213 922.054993,2339.673828 941.145447,2340.882324 
	C942.746033,2352.397461 943.474609,2362.954102 943.795044,2373.523193 
	C943.962036,2379.031494 941.662720,2383.205322 934.828491,2384.230469 
	C932.047424,2384.384766 930.024841,2384.494873 927.341980,2384.501709 
	C925.796082,2384.467285 924.910461,2384.535889 923.093567,2384.483398 
	C910.010376,2384.670898 897.858459,2384.979004 885.329590,2385.270996 
	C884.428223,2385.293945 883.959717,2385.476562 882.825195,2385.861328 
	C872.300964,2388.488037 863.916687,2392.674561 861.457275,2404.144531 
	C861.078674,2404.898193 861.020081,2405.364746 860.871887,2406.656250 
	C860.706604,2409.683350 860.759888,2411.901855 860.811707,2414.614746 
	C861.171570,2416.015869 861.532898,2416.922607 862.093323,2418.503662 
	C865.053406,2426.487305 870.780945,2430.591553 877.860168,2432.777100 
	C883.106201,2434.396729 888.589050,2435.249268 894.725708,2436.741699 
	C906.337341,2436.842529 917.189697,2436.645264 928.789673,2436.312012 
	C931.552124,2436.053955 933.566772,2435.931885 936.294556,2436.069824 
	C939.130127,2438.642822 942.849426,2440.795166 943.101746,2443.297119 
	C944.259705,2454.780518 947.253601,2466.996826 935.992737,2475.871338 
	C935.992737,2475.871338 935.145508,2476.184326 933.767700,2476.204102 
	C923.576111,2476.658203 914.762390,2477.092285 905.948608,2477.526367 
	C904.479370,2477.516602 903.010193,2477.506836 900.068237,2477.196289 
	C894.235229,2476.778076 889.875061,2476.660156 885.514832,2476.541992 
	C876.807617,2475.672852 868.100464,2474.803711 858.094849,2473.158203 
	C855.876160,2469.264404 854.556824,2466.198242 854.141174,2463.014648 
	C853.670532,2459.409180 854.000793,2455.697998 853.998840,2452.032959 
	C853.948303,2358.071045 853.899841,2264.109131 853.851074,2170.147217 
	C863.715088,2164.189697 874.530457,2161.164551 887.453247,2159.824707 
	C891.999634,2159.343018 894.963989,2158.795654 897.928284,2158.248291 
	C904.688599,2158.146973 911.448914,2158.045898 919.341553,2158.190918 
	C920.473877,2158.437256 921.197021,2158.555420 921.197021,2158.555420 
	C921.197021,2158.555420 921.921387,2158.429199 921.921387,2158.429199 
	C922.932556,2158.482910 923.943787,2158.536865 926.240234,2158.949707 
	C929.061096,2159.522949 930.596619,2159.737061 932.132202,2159.951172 
	C934.244751,2160.151855 936.357300,2160.352539 939.339966,2161.625000 
	C940.763184,2174.168457 941.401306,2185.637207 941.825928,2197.114014 
	C941.987366,2201.477295 940.029602,2204.731445 935.239258,2205.967773 
	C934.359436,2205.491211 934.014282,2205.059326 933.468628,2203.877686 
	C930.997864,2202.272705 928.874390,2201.300049 926.277466,2200.385742 
	C925.159668,2200.393311 924.552124,2200.216553 923.478394,2199.604980 
	C921.864746,2198.913330 920.753845,2198.530518 919.026245,2198.169922 
	C917.599243,2198.059814 916.788940,2197.927490 915.756836,2197.682617 
	C915.050293,2197.408447 914.564209,2197.409180 913.258240,2197.602295 
	C910.257446,2197.575684 908.075073,2197.519287 905.655029,2197.414062 
	C904.919983,2197.339355 904.460388,2197.461914 903.295532,2197.916504 
	C893.066406,2199.817139 884.652893,2203.537598 879.190735,2211.880371 
	C869.915161,2226.048096 869.572266,2241.410400 874.851318,2256.847412 
	C879.548645,2270.583252 890.712585,2276.672852 904.995605,2279.104980 
	C908.954773,2279.150146 912.308472,2278.994629 916.391418,2278.603271 
	C920.562378,2277.541016 924.004028,2276.714600 927.865601,2275.685059 
	C928.831055,2275.185303 929.351074,2274.849121 930.219971,2274.235352 
	C930.594482,2273.997803 931.451904,2273.770020 932.291992,2273.836426 
	C939.234924,2273.973389 942.041321,2277.118652 941.951416,2283.156982 
	C941.878174,2288.070557 941.530701,2293.039062 942.100769,2297.889648 
	C943.018860,2305.702393 940.743286,2311.754395 934.066772,2316.034668 
	C934.066772,2316.034668 934.036377,2316.085449 933.278503,2316.052246 
	C929.708496,2316.587646 926.896301,2317.156250 924.084167,2317.725098 
	C915.546997,2317.919189 907.002808,2317.964355 898.475342,2318.364990 
	C893.576294,2318.594971 888.670227,2319.197021 883.829834,2320.005615 
	C878.998535,2320.812988 874.832581,2323.164307 874.149719,2328.451172 
	C873.431946,2334.009033 877.179138,2336.677979 883.122070,2338.414551 
	C884.755066,2339.048340 885.338379,2339.181885 885.956665,2339.162598 
z"/>
<path fill="#790160" opacity="1.000000" stroke="none" 
	d="
M1737.738037,2251.895020 
	C1746.602783,2251.365234 1755.462646,2250.515137 1764.333496,2250.375000 
	C1780.961304,2250.112061 1781.141602,2250.147705 1780.168213,2233.742188 
	C1779.973022,2230.453125 1779.499146,2227.129395 1778.696899,2223.936279 
	C1775.156616,2209.846924 1766.123657,2201.818115 1751.437988,2199.363770 
	C1754.617065,2195.281006 1760.193604,2192.244629 1761.005615,2188.241699 
	C1762.951782,2178.649170 1764.612915,2168.023193 1753.010864,2161.975342 
	C1751.690796,2161.287109 1750.983887,2159.422119 1749.992798,2158.102783 
	C1763.461548,2156.786865 1776.619507,2158.676514 1789.477173,2162.481445 
	C1812.055786,2169.162842 1827.659180,2183.587646 1835.870483,2205.715332 
	C1839.951050,2216.711426 1842.473877,2228.065918 1842.201660,2241.737793 
	C1842.087524,2270.433105 1841.991211,2297.288330 1842.060303,2324.142578 
	C1842.068726,2327.399170 1842.969116,2330.653564 1843.456055,2333.908936 
	C1846.088013,2342.608887 1846.381836,2342.846436 1854.750854,2343.718994 
	C1857.339966,2343.989014 1859.917236,2344.373047 1863.197510,2344.794434 
	C1863.567749,2348.023438 1864.155762,2350.908447 1864.183350,2353.798584 
	C1864.278931,2363.786377 1864.132812,2373.776611 1864.173096,2383.765381 
	C1864.193115,2388.703857 1861.659424,2391.649902 1856.954590,2391.303711 
	C1842.087524,2390.209473 1827.159424,2389.282471 1812.439941,2387.063232 
	C1801.154541,2385.361572 1793.954956,2377.213379 1788.619141,2367.509033 
	C1787.674805,2365.791504 1786.804077,2364.033447 1785.259521,2361.063965 
	C1775.535156,2371.769043 1766.863770,2382.793701 1752.719238,2386.953369 
	C1751.992432,2378.833984 1752.158691,2371.503906 1751.889160,2364.190186 
	C1751.582397,2355.864990 1750.463867,2354.724121 1742.390137,2351.524170 
	C1770.926880,2341.869629 1788.279541,2312.367676 1779.346313,2288.205078 
	C1770.410522,2287.875488 1761.186279,2287.535156 1751.967529,2286.309082 
	C1751.953247,2277.211426 1752.162964,2268.990234 1751.841919,2260.790039 
	C1751.580688,2254.119385 1750.208862,2252.940430 1743.643555,2252.139648 
	C1741.694092,2251.901367 1739.707642,2251.967773 1737.738037,2251.895020 
z"/>
<path fill="#C50E56" opacity="1.000000" stroke="none" 
	d="
M677.876526,2206.293701 
	C679.187378,2202.928955 681.614807,2199.561768 681.607788,2196.199951 
	C681.583008,2184.295898 680.726074,2172.393799 680.054382,2159.722656 
	C736.951843,2164.547363 777.397522,2211.972168 778.302185,2270.817871 
	C778.570374,2288.260254 777.459412,2305.492676 771.292786,2321.887207 
	C755.648071,2363.479736 725.897461,2387.883301 680.800903,2394.004395 
	C680.626038,2382.626709 681.363708,2371.357178 681.903748,2360.078125 
	C682.120056,2355.560303 680.859558,2351.486328 676.794922,2347.833496 
	C696.695251,2338.753418 705.336792,2322.049805 709.729248,2302.403076 
	C712.729370,2288.983154 713.171631,2275.291016 711.548584,2261.674072 
	C708.750244,2238.198486 700.691772,2217.701660 677.876526,2206.293701 
z"/>
<path fill="#9D005C" opacity="1.000000" stroke="none" 
	d="
M1349.278442,2164.363037 
	C1349.404785,2168.023682 1349.640259,2171.684082 1349.641479,2175.344727 
	C1349.663696,2242.330078 1349.672363,2309.315674 1349.623169,2376.301025 
	C1349.620117,2380.516357 1349.118774,2384.731201 1348.815796,2389.469971 
	C1345.006592,2389.772461 1342.085693,2390.096191 1339.156128,2390.221436 
	C1326.207764,2390.775391 1313.259888,2391.376221 1300.305298,2391.723389 
	C1296.704712,2391.819824 1293.082153,2391.104492 1288.543457,2390.007812 
	C1287.308105,2388.773438 1286.952026,2388.330322 1286.548950,2387.925049 
	C1286.536621,2314.015869 1286.524170,2240.106689 1287.493896,2165.230957 
	C1308.743408,2164.297119 1329.010864,2164.330078 1349.278442,2164.363037 
z"/>
<path fill="#810160" opacity="1.000000" stroke="none" 
	d="
M1741.781128,2351.914795 
	C1750.463867,2354.724121 1751.582397,2355.864990 1751.889160,2364.190186 
	C1752.158691,2371.503906 1751.992432,2378.833984 1752.027588,2387.092041 
	C1752.036621,2388.027344 1752.004761,2388.003418 1751.481201,2388.173340 
	C1749.982666,2388.852051 1749.007690,2389.360596 1748.032837,2389.869385 
	C1745.881958,2390.600586 1743.730957,2391.331543 1740.370117,2392.171875 
	C1738.186646,2392.680176 1737.213135,2393.079834 1736.239746,2393.479248 
	C1734.790283,2393.724609 1733.340820,2393.969971 1730.430786,2394.206543 
	C1726.658325,2394.615479 1724.346313,2395.033691 1722.034302,2395.451660 
	C1717.944092,2395.553711 1713.854004,2395.655762 1708.229248,2395.416016 
	C1704.278076,2394.856201 1701.861328,2394.637939 1699.444580,2394.419922 
	C1679.217407,2392.468018 1661.318848,2385.443848 1647.611694,2369.880127 
	C1626.835205,2346.289307 1625.382935,2294.305176 1663.655884,2271.136475 
	C1685.879395,2257.683350 1710.178467,2251.991455 1736.843140,2251.845215 
	C1739.707642,2251.967773 1741.694092,2251.901367 1743.643555,2252.139648 
	C1750.208862,2252.940430 1751.580688,2254.119385 1751.841919,2260.790039 
	C1752.162964,2268.990234 1751.953247,2277.211426 1751.094727,2286.451172 
	C1746.908936,2287.770020 1743.582520,2287.925049 1740.296753,2288.376221 
	C1728.233154,2290.032227 1716.632935,2293.268066 1708.157715,2302.566162 
	C1700.455566,2311.015869 1696.075439,2320.849854 1700.390625,2332.661133 
	C1704.739136,2344.563477 1713.469849,2350.730469 1725.874634,2351.714844 
	C1731.148804,2352.133545 1736.477295,2351.868896 1741.781128,2351.914795 
z"/>
<path fill="#B30158" opacity="1.000000" stroke="none" 
	d="
M934.881653,2316.083984 
	C940.743286,2311.754395 943.018860,2305.702393 942.100769,2297.889648 
	C941.530701,2293.039062 941.878174,2288.070557 941.951416,2283.156982 
	C942.041321,2277.118652 939.234924,2273.973389 932.696045,2273.281250 
	C940.866699,2265.913818 945.144897,2256.965576 946.520508,2246.197266 
	C948.430786,2231.243164 945.255676,2217.856201 935.627075,2206.130371 
	C940.029602,2204.731445 941.987366,2201.477295 941.825928,2197.114014 
	C941.401306,2185.637207 940.763184,2174.168457 940.072876,2161.949219 
	C941.242920,2159.064697 943.129578,2157.087158 943.767090,2154.766113 
	C949.633911,2133.406738 961.202576,2122.868164 983.359985,2120.514893 
	C993.497192,2119.437988 1003.812012,2120.032715 1015.012451,2120.898926 
	C1015.946350,2136.596436 1015.914124,2151.264648 1015.881897,2165.932861 
	C1008.221313,2166.046387 1000.560791,2166.161621 992.900208,2166.272949 
	C988.799011,2166.332520 984.691284,2166.521484 982.918579,2171.161621 
	C981.129517,2175.844727 981.335144,2180.114746 985.227234,2184.000244 
	C994.101990,2192.859863 1000.722168,2203.195312 1003.775208,2215.460449 
	C1014.830566,2259.874268 995.834229,2298.262939 948.366516,2313.451172 
	C944.275879,2314.759766 939.925964,2315.258301 934.881653,2316.083984 
z"/>
<path fill="#B30158" opacity="1.000000" stroke="none" 
	d="
M936.886536,2476.006592 
	C947.253601,2466.996826 944.259705,2454.780518 943.101746,2443.297119 
	C942.849426,2440.795166 939.130127,2438.642822 936.887207,2435.651611 
	C941.324402,2433.090332 946.174316,2431.701416 950.377136,2429.217529 
	C958.499634,2424.417480 962.158081,2416.629883 961.349182,2407.449951 
	C960.501038,2397.824463 955.049866,2390.970947 945.895081,2387.450195 
	C942.537231,2386.158936 939.027405,2385.262695 935.586914,2384.186523 
	C941.662720,2383.205322 943.962036,2379.031494 943.795044,2373.523193 
	C943.474609,2362.954102 942.746033,2352.397461 942.072083,2341.015137 
	C960.237122,2339.498535 977.629761,2342.814941 993.674377,2351.899414 
	C1010.958191,2361.685791 1021.170044,2376.435547 1024.252441,2397.546875 
	C1024.658081,2400.707031 1025.053955,2402.409180 1025.449707,2404.111084 
	C1025.477051,2406.835449 1025.504517,2409.560059 1025.231201,2413.703125 
	C1024.737427,2416.849854 1024.544434,2418.577637 1024.351440,2420.305420 
	C1022.550903,2438.064941 1013.455566,2451.308350 998.487488,2460.379639 
	C979.901245,2471.643066 959.203064,2475.451172 936.886536,2476.006592 
z"/>
<path fill="#BC0D58" opacity="1.000000" stroke="none" 
	d="
M853.208130,2170.335938 
	C853.899841,2264.109131 853.948303,2358.071045 853.998840,2452.032959 
	C854.000793,2455.697998 853.670532,2459.409180 854.141174,2463.014648 
	C854.556824,2466.198242 855.876160,2469.264404 857.263062,2472.932617 
	C852.929810,2472.417725 848.130066,2471.352051 842.870056,2469.157715 
	C842.939514,2462.445068 843.915527,2456.862061 843.929077,2451.276611 
	C844.048462,2402.233643 843.996338,2353.189941 843.994995,2304.146484 
	C843.209839,2302.509277 842.857544,2300.310791 841.573547,2299.320557 
	C826.507568,2287.701172 817.001709,2272.762451 813.825317,2252.486328 
	C813.435974,2249.374023 813.031982,2247.696045 812.628052,2246.018066 
	C812.569153,2241.909668 812.510315,2237.801270 812.791565,2232.197266 
	C813.288330,2228.929443 813.444946,2227.156738 813.601624,2225.384277 
	C816.415771,2199.871826 830.671997,2182.486084 853.208130,2170.335938 
z"/>
<path fill="#9B015C" opacity="1.000000" stroke="none" 
	d="
M1340.813721,2131.225098 
	C1329.352783,2137.651367 1317.683716,2137.198975 1306.136230,2135.444580 
	C1297.395996,2134.116699 1290.353149,2129.480957 1284.793213,2122.170166 
	C1271.923584,2105.247803 1273.439575,2077.918457 1288.982910,2063.802490 
	C1303.173706,2050.914795 1320.082520,2050.815674 1336.656250,2057.069336 
	C1352.660767,2063.108154 1359.237915,2076.672852 1359.661743,2093.395020 
	C1360.057861,2109.023438 1355.325562,2122.142334 1340.813721,2131.225098 
z"/>
<path fill="#800160" opacity="1.000000" stroke="none" 
	d="
M1749.108154,2157.994629 
	C1750.983887,2159.422119 1751.690796,2161.287109 1753.010864,2161.975342 
	C1764.612915,2168.023193 1762.951782,2178.649170 1761.005615,2188.241699 
	C1760.193604,2192.244629 1754.617065,2195.281006 1750.695801,2199.158203 
	C1747.859009,2199.653320 1745.527100,2199.668701 1743.208618,2199.852295 
	C1724.658203,2201.321045 1715.095337,2209.030029 1709.420898,2227.035645 
	C1708.631714,2229.540283 1707.829224,2232.040527 1706.679199,2235.654297 
	C1685.562012,2233.759033 1665.055908,2229.057129 1644.487061,2225.637451 
	C1645.492188,2190.518311 1685.126465,2162.380127 1723.420898,2159.819336 
	C1728.010376,2159.286621 1730.985962,2158.691406 1733.961670,2158.096191 
	C1738.715698,2158.026367 1743.469604,2157.956543 1749.108154,2157.994629 
z"/>
<path fill="#BD0E57" opacity="1.000000" stroke="none" 
	d="
M843.283569,2304.191406 
	C843.996338,2353.189941 844.048462,2402.233643 843.929077,2451.276611 
	C843.915527,2456.862061 842.939514,2462.445068 842.212952,2468.813965 
	C821.170837,2465.949463 803.333557,2451.082031 798.916748,2430.666260 
	C793.185181,2404.173584 801.170959,2388.591309 830.653748,2370.241211 
	C828.594116,2367.674805 826.591614,2365.179443 824.119141,2361.642578 
	C823.119263,2359.765137 822.589233,2358.928955 822.059204,2358.093018 
	C821.427063,2357.060059 820.794922,2356.027100 819.938599,2354.197266 
	C819.714355,2353.400635 819.258911,2352.639893 819.258911,2352.639893 
	C818.788269,2351.150146 818.317627,2349.660400 817.859741,2346.451660 
	C817.890503,2340.426758 817.908569,2336.120605 817.926636,2331.814697 
	C820.121643,2317.241943 829.665161,2309.236328 843.283569,2304.191406 
z"/>
<path fill="#9C1E51" opacity="1.000000" stroke="none" 
	d="
M501.764526,2337.246094 
	C501.107574,2333.288330 500.075073,2328.381104 500.068542,2323.472412 
	C499.966156,2246.611084 499.999786,2169.749512 499.992950,2092.888184 
	C499.991455,2076.047363 499.975098,2076.020508 482.888794,2076.025635 
	C468.582123,2076.030029 454.275482,2076.106934 439.037933,2076.220459 
	C441.192841,2075.528564 444.269043,2074.159668 447.366028,2074.110840 
	C462.000122,2073.880371 476.640411,2073.938965 491.277527,2074.038330 
	C501.494537,2074.107910 501.953583,2074.519287 501.965881,2084.794189 
	C502.025970,2135.028564 502.014160,2185.262695 501.994080,2235.497070 
	C501.980652,2269.096680 501.910828,2302.696289 501.764526,2337.246094 
z"/>
<path fill="#6A1A57" opacity="1.000000" stroke="none" 
	d="
M1587.639893,2337.126953 
	C1587.006226,2333.142334 1586.065308,2328.222412 1586.059326,2323.301514 
	C1585.965820,2246.517822 1585.997803,2169.734131 1585.989136,2092.950439 
	C1585.987305,2076.030273 1585.966553,2076.015381 1568.806885,2076.006104 
	C1554.513916,2075.998291 1540.220947,2076.031006 1524.995605,2076.071777 
	C1526.557495,2075.410156 1529.045044,2074.157227 1531.546997,2074.127686 
	C1547.204712,2073.941895 1562.866943,2073.902832 1578.524902,2074.076660 
	C1586.850830,2074.168945 1587.572388,2075.113525 1587.962280,2083.305664 
	C1588.009766,2084.303223 1587.991821,2085.304443 1587.991821,2086.303955 
	C1587.990723,2167.602539 1587.990112,2248.901123 1587.977173,2330.199707 
	C1587.976807,2332.197021 1587.840332,2334.194092 1587.639893,2337.126953 
z"/>
<path fill="#6A1A57" opacity="1.000000" stroke="none" 
	d="
M1465.657837,2337.128174 
	C1465.026001,2333.141846 1464.088501,2328.220703 1464.082642,2323.298828 
	C1463.989868,2246.493896 1464.021729,2169.688721 1464.014038,2092.883789 
	C1464.012329,2076.012939 1463.993408,2075.998047 1446.809082,2075.995361 
	C1432.512329,2075.993164 1418.215454,2076.031250 1402.985352,2076.088379 
	C1404.539673,2075.425537 1407.020508,2074.150391 1409.516357,2074.120605 
	C1425.176025,2073.932373 1440.840454,2073.896484 1456.500366,2074.069824 
	C1464.853149,2074.162109 1465.573730,2075.102539 1465.976685,2083.273193 
	C1465.993042,2083.605957 1465.990967,2083.939453 1465.990723,2084.272705 
	C1465.922729,2168.246094 1465.854248,2252.219727 1465.657837,2337.128174 
z"/>
<path fill="#AF1E51" opacity="1.000000" stroke="none" 
	d="
M152.178604,2089.965088 
	C152.110489,2127.519287 151.986633,2165.073730 151.986877,2202.627930 
	C151.987289,2263.779541 152.068802,2324.930908 152.137100,2387.503906 
	C152.158127,2388.925537 152.144592,2389.905518 152.144592,2389.905518 
	C151.432083,2386.809570 150.100601,2383.714355 150.097000,2380.617676 
	C149.987183,2286.113281 150.001175,2191.608887 150.042740,2097.104492 
	C150.043900,2094.474854 150.557709,2091.845215 151.468292,2089.124023 
	C152.104141,2089.032227 152.178604,2089.965088 152.178604,2089.965088 
z"/>
<path fill="#7A1A56" opacity="1.000000" stroke="none" 
	d="
M1242.763428,2163.802979 
	C1210.733765,2164.260742 1178.143799,2164.141113 1145.553833,2164.053467 
	C1118.615967,2163.980957 1091.678223,2163.892090 1064.740356,2163.919434 
	C1052.894531,2163.931641 1052.013306,2164.795654 1051.939941,2176.171387 
	C1051.858398,2188.807373 1051.996094,2201.445068 1052.097412,2215.015137 
	C1051.437134,2213.487793 1050.137085,2211.037109 1050.095825,2208.564941 
	C1049.885498,2195.937500 1049.846680,2183.301514 1050.058716,2170.674072 
	C1050.185791,2163.107178 1051.176270,2162.120361 1058.907837,2162.039795 
	C1075.193481,2161.870117 1091.482300,2162.025879 1107.769897,2162.029541 
	C1148.655518,2162.038574 1189.541138,2162.005127 1230.426514,2162.092773 
	C1234.352905,2162.101318 1238.277710,2162.839600 1242.763428,2163.802979 
z"/>
<path fill="#6A1A57" opacity="1.000000" stroke="none" 
	d="
M1843.590576,2332.988770 
	C1842.969116,2330.653564 1842.068726,2327.399170 1842.060303,2324.142578 
	C1841.991211,2297.288330 1842.087524,2270.433105 1842.194702,2242.613281 
	C1842.820068,2244.540771 1843.868164,2247.432617 1843.873657,2250.326416 
	C1843.925537,2277.573730 1843.799561,2304.821045 1843.590576,2332.988770 
z"/>
<path fill="#7F1A5C" opacity="1.000000" stroke="none" 
	d="
M1348.709839,2163.812988 
	C1329.010864,2164.330078 1308.743408,2164.297119 1287.591553,2164.322754 
	C1288.795654,2163.627441 1290.878540,2162.237549 1292.973267,2162.219727 
	C1310.105469,2162.072021 1327.239746,2162.157715 1344.373047,2162.255127 
	C1345.630981,2162.262207 1346.885254,2162.911865 1348.709839,2163.812988 
z"/>
<path fill="#7A1A56" opacity="1.000000" stroke="none" 
	d="
M1045.458496,2344.625977 
	C1045.963501,2358.662842 1045.975952,2373.377686 1046.027100,2389.026123 
	C1045.476807,2388.822998 1044.369019,2387.682373 1044.377197,2386.549805 
	C1044.478149,2372.800537 1044.743408,2359.052002 1045.458496,2344.625977 
z"/>
<path fill="#9C1E51" opacity="1.000000" stroke="none" 
	d="
M1492.549316,2389.015869 
	C1491.987183,2375.153809 1491.987549,2360.707520 1492.001343,2345.359863 
	C1492.610107,2345.596436 1493.729858,2346.738281 1493.720947,2347.871094 
	C1493.615234,2361.391846 1493.341553,2374.911621 1492.549316,2389.015869 
z"/>
<path fill="#7F1A5C" opacity="1.000000" stroke="none" 
	d="
M1016.461304,2165.326172 
	C1015.914124,2151.264648 1015.946350,2136.596436 1015.938354,2120.996094 
	C1016.503662,2121.189941 1017.641846,2122.320068 1017.633667,2123.441650 
	C1017.533386,2137.201660 1017.265381,2150.960449 1016.461304,2165.326172 
z"/>
<path fill="#9C1E51" opacity="1.000000" stroke="none" 
	d="
M528.348145,2389.333984 
	C527.739746,2375.250732 527.773987,2360.613770 527.744873,2345.046143 
	C528.343384,2345.196045 529.586243,2346.280762 529.579041,2347.357178 
	C529.486877,2361.165527 529.216187,2374.972656 528.348145,2389.333984 
z"/>
<path fill="#7A1A56" opacity="1.000000" stroke="none" 
	d="
M1578.065186,2390.736572 
	C1588.333130,2390.222168 1599.378784,2390.126709 1611.389771,2390.101074 
	C1601.184326,2390.499023 1590.013672,2390.827148 1578.065186,2390.736572 
z"/>
<path fill="#7F1A5C" opacity="1.000000" stroke="none" 
	d="
M906.857849,2477.722656 
	C914.762390,2477.092285 923.576111,2476.658203 933.328552,2476.309570 
	C925.433838,2476.902832 916.600464,2477.410645 906.857849,2477.722656 
z"/>
<path fill="#E20D53" opacity="1.000000" stroke="none" 
	d="
M202.927368,2389.985107 
	C210.100189,2386.947998 218.279495,2387.541504 227.227142,2389.492188 
	C219.925568,2389.925049 211.883347,2390.035645 202.927368,2389.985107 
z"/>
<path fill="#9C1E51" opacity="1.000000" stroke="none" 
	d="
M398.694092,2315.660645 
	C398.222076,2310.753662 398.167389,2305.157471 398.215485,2298.635254 
	C398.582611,2303.463379 398.846985,2309.217773 398.694092,2315.660645 
z"/>
<path fill="#9C1E51" opacity="1.000000" stroke="none" 
	d="
M388.876892,2169.805420 
	C388.337433,2164.854248 388.225433,2159.207520 388.210083,2152.627930 
	C388.639282,2157.500244 388.971832,2163.304932 388.876892,2169.805420 
z"/>
<path fill="#E20D53" opacity="1.000000" stroke="none" 
	d="
M153.022522,2390.042480 
	C152.144592,2389.905518 152.158127,2388.925537 152.195312,2388.436523 
	C157.666061,2388.363525 163.099609,2388.779785 169.253906,2389.516113 
	C164.616577,2389.950684 159.258530,2390.065186 153.022522,2390.042480 
z"/>
<path fill="#BC0D58" opacity="1.000000" stroke="none" 
	d="
M817.546875,2332.469727 
	C817.908569,2336.120605 817.890503,2340.426758 817.835938,2345.666016 
	C817.588745,2342.107666 817.377930,2337.616211 817.546875,2332.469727 
z"/>
<path fill="#7F1A5C" opacity="1.000000" stroke="none" 
	d="
M886.227112,2476.939209 
	C889.875061,2476.660156 894.235229,2476.778076 899.334106,2477.168945 
	C895.694946,2477.406738 891.317139,2477.371582 886.227112,2476.939209 
z"/>
<path fill="#790160" opacity="1.000000" stroke="none" 
	d="
M1733.191895,2158.060303 
	C1730.985962,2158.691406 1728.010376,2159.286621 1724.240234,2159.855469 
	C1726.437866,2159.227539 1729.430054,2158.625977 1733.191895,2158.060303 
z"/>
<path fill="#B30158" opacity="1.000000" stroke="none" 
	d="
M924.819580,2317.760498 
	C926.896301,2317.156250 929.708496,2316.587646 933.254272,2316.035156 
	C931.176880,2316.633057 928.365967,2317.214355 924.819580,2317.760498 
z"/>
<path fill="#B30158" opacity="1.000000" stroke="none" 
	d="
M897.161011,2158.206543 
	C894.963989,2158.795654 891.999634,2159.343018 888.253540,2159.857422 
	C890.445801,2159.271240 893.419800,2158.718262 897.161011,2158.206543 
z"/>
<path fill="#6A1A57" opacity="1.000000" stroke="none" 
	d="
M1700.088623,2394.782227 
	C1701.861328,2394.637939 1704.278076,2394.856201 1707.353516,2395.377441 
	C1705.585693,2395.501953 1703.159180,2395.323242 1700.088623,2394.782227 
z"/>
<path fill="#6A1A57" opacity="1.000000" stroke="none" 
	d="
M1722.749634,2395.576172 
	C1724.346313,2395.033691 1726.658325,2394.615479 1729.693359,2394.237305 
	C1728.099365,2394.751709 1725.782227,2395.226074 1722.749634,2395.576172 
z"/>
<path fill="#9C1E51" opacity="1.000000" stroke="none" 
	d="
M546.421265,2288.678223 
	C547.008057,2290.288818 547.437805,2292.615723 547.798462,2295.663086 
	C547.241028,2294.053955 546.752625,2291.724121 546.421265,2288.678223 
z"/>
<path fill="#7F1A5C" opacity="1.000000" stroke="none" 
	d="
M1024.725830,2419.746582 
	C1024.544434,2418.577637 1024.737427,2416.849854 1025.192139,2414.520020 
	C1025.335815,2415.674561 1025.218018,2417.430908 1024.725830,2419.746582 
z"/>
<path fill="#9C1E51" opacity="1.000000" stroke="none" 
	d="
M646.202820,2394.658203 
	C647.390503,2394.450684 649.138916,2394.631348 651.494263,2395.085938 
	C650.322021,2395.255371 648.542786,2395.150635 646.202820,2394.658203 
z"/>
<path fill="#7F1A5C" opacity="1.000000" stroke="none" 
	d="
M1025.580566,2403.445557 
	C1025.053955,2402.409180 1024.658081,2400.707031 1024.301758,2398.342773 
	C1024.798096,2399.380127 1025.254639,2401.080078 1025.580566,2403.445557 
z"/>
<path fill="#9C1E51" opacity="1.000000" stroke="none" 
	d="
M672.562622,2395.500977 
	C673.653198,2394.963623 675.435181,2394.576904 677.912964,2394.251221 
	C676.823853,2394.758789 675.038879,2395.205078 672.562622,2395.500977 
z"/>
<path fill="#C50E56" opacity="1.000000" stroke="none" 
	d="
M673.191895,2158.190186 
	C672.257446,2158.494873 670.607788,2158.596680 668.501465,2158.449463 
	C669.522034,2158.129150 670.999390,2158.058105 673.191895,2158.190186 
z"/>
<path fill="#9C1E51" opacity="1.000000" stroke="none" 
	d="
M813.223206,2225.959961 
	C813.444946,2227.156738 813.288330,2228.929443 812.876038,2231.319824 
	C812.695190,2230.137207 812.770020,2228.336426 813.223206,2225.959961 
z"/>
<path fill="#B30158" opacity="1.000000" stroke="none" 
	d="
M931.632690,2159.609863 
	C930.596619,2159.737061 929.061096,2159.522949 926.983459,2159.110107 
	C928.005310,2159.030518 929.569214,2159.149414 931.632690,2159.609863 
z"/>
<path fill="#9C1E51" opacity="1.000000" stroke="none" 
	d="
M812.506104,2246.674561 
	C813.031982,2247.696045 813.435974,2249.374023 813.809814,2251.707764 
	C813.314575,2250.686035 812.849365,2249.008545 812.506104,2246.674561 
z"/>
<path fill="#BC0D58" opacity="1.000000" stroke="none" 
	d="
M822.147278,2358.594727 
	C822.589233,2358.928955 823.119263,2359.765137 823.835449,2361.057861 
	C823.426147,2360.708496 822.830750,2359.902588 822.147278,2358.594727 
z"/>
<path fill="#790160" opacity="1.000000" stroke="none" 
	d="
M1736.773804,2393.438965 
	C1737.213135,2393.079834 1738.186646,2392.680176 1739.680908,2392.168945 
	C1739.237061,2392.504395 1738.272461,2392.951416 1736.773804,2393.438965 
z"/>
<path fill="#6A4E65" opacity="1.000000" stroke="none" 
	d="
M292.481445,2391.221680 
	C292.978455,2390.923828 293.803314,2390.875732 295.244141,2390.880371 
	C294.843170,2391.112793 293.826202,2391.292480 292.481445,2391.221680 
z"/>
<path fill="#790160" opacity="1.000000" stroke="none" 
	d="
M1748.592896,2389.806396 
	C1749.007690,2389.360596 1749.982666,2388.852051 1751.486328,2388.186035 
	C1751.061157,2388.600342 1750.107056,2389.171875 1748.592896,2389.806396 
z"/>
<path fill="#634F64" opacity="1.000000" stroke="none" 
	d="
M1128.155029,2336.835449 
	C1127.837402,2336.447510 1127.487183,2335.465088 1127.522705,2334.174805 
	C1127.979858,2334.658447 1128.051147,2335.449707 1128.155029,2336.835449 
z"/>
<path fill="#C50E56" opacity="1.000000" stroke="none" 
	d="
M655.327759,2158.074219 
	C654.924805,2158.336670 653.870972,2158.479248 652.440430,2158.447266 
	C652.934753,2158.166504 653.805725,2158.060547 655.327759,2158.074219 
z"/>
<path fill="#C50E56" opacity="1.000000" stroke="none" 
	d="
M645.123413,2158.787598 
	C644.640625,2159.177979 643.606262,2159.459961 642.030701,2159.783691 
	C642.516968,2159.443604 643.544434,2159.061279 645.123413,2158.787598 
z"/>
<path fill="#6A4E65" opacity="1.000000" stroke="none" 
	d="
M302.182617,2390.477539 
	C302.262085,2390.252930 302.609863,2390.146484 303.503479,2390.054688 
	C303.603180,2390.507324 303.070404,2390.682861 302.182617,2390.477539 
z"/>
<path fill="#7F1A5C" opacity="1.000000" stroke="none" 
	d="
M1286.617920,2388.377930 
	C1286.952026,2388.330322 1287.308105,2388.773438 1287.828857,2389.626709 
	C1287.410645,2389.816650 1286.959351,2389.427002 1286.617920,2388.377930 
z"/>
<path fill="#6A4E65" opacity="1.000000" stroke="none" 
	d="
M301.834717,2087.635254 
	C301.701996,2087.827148 301.337067,2087.834473 300.442261,2087.702393 
	C300.456635,2087.236084 301.019989,2087.198730 301.834717,2087.635254 
z"/>
<path fill="#BC0D58" opacity="1.000000" stroke="none" 
	d="
M819.257690,2352.881348 
	C819.258911,2352.639893 819.714355,2353.400635 819.823120,2353.595215 
	C819.931946,2353.790039 819.256531,2353.122559 819.257690,2352.881348 
z"/>
<path fill="#E20D53" opacity="1.000000" stroke="none" 
	d="
M152.498505,2089.678711 
	C152.178604,2089.965088 152.104141,2089.032227 152.095642,2088.564209 
	C152.087143,2088.096191 153.046432,2087.926025 153.521927,2088.032471 
	C153.632675,2088.583252 153.239670,2089.001221 152.498505,2089.678711 
z"/>
<path fill="#634F64" opacity="1.000000" stroke="none" 
	d="
M437.448608,2346.178711 
	C437.658112,2346.263916 437.750275,2346.621582 437.835693,2347.534180 
	C437.405396,2347.620361 437.239532,2347.074463 437.448608,2346.178711 
z"/>
<path fill="#634F64" opacity="1.000000" stroke="none" 
	d="
M885.584717,2338.908691 
	C885.338379,2339.181885 884.755066,2339.048340 883.833679,2338.498047 
	C884.076721,2338.240479 884.660767,2338.380615 885.584717,2338.908691 
z"/>
<path fill="#B30158" opacity="1.000000" stroke="none" 
	d="
M921.460449,2158.277832 
	C921.921387,2158.429199 921.197021,2158.555420 921.197021,2158.555420 
	C921.197021,2158.555420 920.473877,2158.437256 920.253540,2158.325439 
	C920.033142,2158.213623 920.999573,2158.126221 921.460449,2158.277832 
z"/>
<path fill="#574F67" opacity="1.000000" stroke="none" 
	d="
M1159.907959,2217.051270 
	C1160.133789,2217.027832 1160.469971,2217.516113 1160.558838,2218.286621 
	C1160.213745,2218.233398 1160.116089,2217.898438 1159.907959,2217.051270 
z"/>
<path fill="#4D6871" opacity="1.000000" stroke="none" 
	d="
M284.097839,2253.368408 
	C291.535797,2255.004395 299.152618,2256.081543 306.374176,2258.393555 
	C320.930573,2263.053467 329.845276,2273.053223 332.312744,2290.020996 
	C332.392151,2295.799561 332.478790,2299.949463 332.565430,2304.099365 
	C327.533844,2326.092773 315.908447,2336.477051 293.503815,2338.231689 
	C281.644104,2339.160889 269.722595,2339.301025 256.909851,2339.958252 
	C243.189575,2339.857178 230.388397,2339.595215 216.217178,2339.305176 
	C216.217178,2311.092285 216.217178,2283.747070 217.132599,2255.340332 
	C225.609253,2254.170654 233.170410,2254.058105 240.731720,2253.954346 
	C255.187057,2253.756348 269.642456,2253.563477 284.097839,2253.368408 
z"/>
<path fill="#4D6871" opacity="1.000000" stroke="none" 
	d="
M284.029449,2138.807129 
	C284.935394,2138.715820 285.841309,2138.624512 287.976746,2139.013428 
	C290.904022,2139.609131 292.601807,2139.724121 294.299561,2139.839355 
	C307.396301,2141.576416 317.430298,2147.372559 321.934326,2161.863281 
	C322.431641,2164.084473 322.835022,2165.063721 323.238434,2166.042969 
	C323.301666,2169.468262 323.364899,2172.893799 322.958923,2177.487305 
	C322.249512,2179.191650 322.203705,2179.744141 322.352325,2180.312744 
	C320.767975,2191.103516 313.752014,2197.280518 304.150482,2200.684814 
	C298.898132,2202.547119 293.225586,2203.223877 285.989655,2204.348145 
	C278.649902,2204.180420 273.063049,2204.090332 267.475952,2204.021240 
	C250.392456,2203.810059 233.308823,2203.607422 216.225250,2203.401367 
	C216.223679,2182.993896 216.222122,2162.586182 217.124481,2141.169189 
	C226.136719,2139.559082 234.244995,2138.958496 242.353302,2138.357910 
	C245.679794,2138.278809 249.006287,2138.199707 253.153030,2137.981445 
	C262.702087,2138.048584 271.430878,2138.254150 281.298889,2138.820312 
	C282.438110,2139.180664 283.291809,2139.258057 283.291809,2139.258057 
	C283.291809,2139.258057 284.029449,2138.807129 284.029449,2138.807129 
z"/>
<path fill="#AF1E51" opacity="1.000000" stroke="none" 
	d="
M216.833008,2203.974121 
	C233.308823,2203.607422 250.392456,2203.810059 267.475952,2204.021240 
	C273.063049,2204.090332 278.649902,2204.180420 285.167816,2204.443848 
	C279.969940,2205.125977 273.841064,2205.625244 266.827515,2206.196045 
	C253.675461,2206.190674 241.405807,2206.225098 229.142105,2205.971191 
	C225.233505,2205.890381 221.340775,2205.043213 216.833008,2203.974121 
z"/>
<path fill="#AF1E51" opacity="1.000000" stroke="none" 
	d="
M283.353821,2253.078613 
	C269.642456,2253.563477 255.187057,2253.756348 240.731720,2253.954346 
	C233.170410,2254.058105 225.609253,2254.170654 217.132385,2254.440918 
	C219.942383,2253.712402 223.648270,2252.164795 227.397263,2252.052002 
	C239.614563,2251.684570 251.847610,2251.841309 265.005005,2251.740723 
	C271.493561,2252.052734 277.051666,2252.420898 283.353821,2253.078613 
z"/>
<path fill="#9C1E51" opacity="1.000000" stroke="none" 
	d="
M241.411469,2138.262695 
	C234.244995,2138.958496 226.136719,2139.559082 217.128387,2140.253906 
	C220.311569,2139.577148 224.366791,2138.500488 228.486053,2138.123779 
	C232.446152,2137.761719 236.472458,2138.124023 241.411469,2138.262695 
z"/>
<path fill="#AF1E51" opacity="1.000000" stroke="none" 
	d="
M332.871765,2303.434814 
	C332.478790,2299.949463 332.392151,2295.799561 332.481506,2290.772949 
	C332.831055,2294.187744 333.004578,2298.479004 332.871765,2303.434814 
z"/>
<path fill="#6A4E65" opacity="1.000000" stroke="none" 
	d="
M293.703918,2139.613281 
	C292.601807,2139.724121 290.904022,2139.609131 288.643433,2139.179443 
	C289.756500,2139.039062 291.432404,2139.213135 293.703918,2139.613281 
z"/>
<path fill="#7E4C52" opacity="1.000000" stroke="none" 
	d="
M323.241516,2165.508789 
	C322.835022,2165.063721 322.431641,2164.084473 322.061615,2162.566650 
	C322.478210,2163.010254 322.861389,2163.992432 323.241516,2165.508789 
z"/>
<path fill="#6A4E65" opacity="1.000000" stroke="none" 
	d="
M283.519440,2138.749756 
	C284.029449,2138.807129 283.291809,2139.258057 283.291809,2139.258057 
	C283.291809,2139.258057 282.438110,2139.180664 282.213440,2138.991211 
	C282.329010,2138.765381 282.669220,2138.729004 283.519440,2138.749756 
z"/>
<path fill="#7E4C52" opacity="1.000000" stroke="none" 
	d="
M322.579315,2179.963867 
	C322.203705,2179.744141 322.249512,2179.191650 322.738495,2178.318848 
	C323.089539,2178.544434 323.029236,2179.088623 322.579315,2179.963867 
z"/>
<path fill="#4D6871" opacity="1.000000" stroke="none" 
	d="
M677.390686,2206.247803 
	C700.691772,2217.701660 708.750244,2238.198486 711.548584,2261.674072 
	C713.171631,2275.291016 712.729370,2288.983154 709.729248,2302.403076 
	C705.336792,2322.049805 696.695251,2338.753418 676.182617,2347.388184 
	C674.261780,2347.976074 672.872070,2348.117920 669.907349,2348.270264 
	C663.528870,2348.369873 658.725525,2348.459229 653.922119,2348.548340 
	C635.376465,2344.458252 624.577271,2332.062500 618.438782,2314.970947 
	C616.452942,2309.441406 615.381104,2303.583984 613.940552,2296.447754 
	C613.598816,2293.365723 613.207642,2291.711914 612.816528,2290.058350 
	C612.791443,2281.191162 612.766357,2272.323730 613.250854,2262.083984 
	C613.769592,2259.690674 613.778748,2258.670410 613.787903,2257.649902 
	C616.339722,2248.832031 617.888855,2239.559082 621.644226,2231.287598 
	C630.524414,2211.728271 646.459717,2202.990234 669.281433,2204.599609 
	C672.451294,2205.265869 674.219116,2205.568115 675.986877,2205.870605 
	C675.986877,2205.870605 676.904846,2206.201904 677.390686,2206.247803 
z"/>
<path fill="#9C1E51" opacity="1.000000" stroke="none" 
	d="
M654.610718,2348.856445 
	C658.725525,2348.459229 663.528870,2348.369873 669.225281,2348.434326 
	C665.178650,2348.780029 660.239014,2348.972168 654.610718,2348.856445 
z"/>
<path fill="#6A4E65" opacity="1.000000" stroke="none" 
	d="
M612.786865,2290.694824 
	C613.207642,2291.711914 613.598816,2293.365723 613.897827,2295.666992 
	C613.456177,2294.653809 613.106689,2292.992676 612.786865,2290.694824 
z"/>
<path fill="#C50E56" opacity="1.000000" stroke="none" 
	d="
M675.396118,2205.555176 
	C674.219116,2205.568115 672.451294,2205.265869 670.137634,2204.554688 
	C671.329590,2204.510742 673.067444,2204.875244 675.396118,2205.555176 
z"/>
<path fill="#6A4E65" opacity="1.000000" stroke="none" 
	d="
M613.591492,2258.127930 
	C613.778748,2258.670410 613.769592,2259.690674 613.573853,2261.180176 
	C613.389832,2260.634521 613.392395,2259.620361 613.591492,2258.127930 
z"/>
<path fill="#4D6870" opacity="1.000000" stroke="none" 
	d="
M935.239258,2205.967773 
	C945.255676,2217.856201 948.430786,2231.243164 946.520508,2246.197266 
	C945.144897,2256.965576 940.866699,2265.913818 931.855957,2273.214844 
	C931.451904,2273.770020 930.594482,2273.997803 929.754517,2274.340332 
	C928.315918,2274.951904 927.826355,2275.353760 927.445740,2275.888428 
	C924.004028,2276.714600 920.562378,2277.541016 915.593872,2278.472656 
	C910.841370,2278.686523 907.615723,2278.795410 904.390137,2278.904297 
	C890.712585,2276.672852 879.548645,2270.583252 874.851318,2256.847412 
	C869.572266,2241.410400 869.915161,2226.048096 879.190735,2211.880371 
	C884.652893,2203.537598 893.066406,2199.817139 903.771973,2197.937744 
	C904.991455,2197.774902 905.892639,2197.462891 905.892639,2197.462891 
	C908.075073,2197.519287 910.257446,2197.575684 913.722412,2197.754883 
	C915.004883,2197.877686 915.978699,2197.795166 915.978699,2197.795166 
	C916.788940,2197.927490 917.599243,2198.059814 919.486267,2198.562012 
	C921.702393,2199.259033 922.841797,2199.586182 923.981201,2199.913574 
	C924.552124,2200.216553 925.159668,2200.393311 926.679626,2200.978027 
	C929.642212,2202.511230 931.729126,2203.510742 933.815979,2204.510010 
	C934.014282,2205.059326 934.359436,2205.491211 935.239258,2205.967773 
z"/>
<path fill="#4D6871" opacity="1.000000" stroke="none" 
	d="
M934.828491,2384.230469 
	C939.027405,2385.262695 942.537231,2386.158936 945.895081,2387.450195 
	C955.049866,2390.970947 960.501038,2397.824463 961.349182,2407.449951 
	C962.158081,2416.629883 958.499634,2424.417480 950.377136,2429.217529 
	C946.174316,2431.701416 941.324402,2433.090332 936.174133,2435.391602 
	C933.566772,2435.931885 931.552124,2436.053955 927.863708,2436.167969 
	C915.448792,2436.254395 904.707520,2436.349121 893.966309,2436.443848 
	C888.589050,2435.249268 883.106201,2434.396729 877.860168,2432.777100 
	C870.780945,2430.591553 865.053406,2426.487305 862.095215,2418.009521 
	C861.536377,2415.934082 861.174805,2415.027100 860.813171,2414.120117 
	C860.759888,2411.901855 860.706604,2409.683350 861.073242,2406.364258 
	C861.691772,2404.805664 861.743530,2404.331787 861.648315,2403.841553 
	C863.916687,2392.674561 872.300964,2388.488037 883.208374,2385.864990 
	C884.825256,2385.761963 885.289673,2385.587891 885.706604,2385.287109 
	C897.858459,2384.979004 910.010376,2384.670898 923.465210,2384.691406 
	C925.846252,2384.881836 926.924255,2384.743408 928.002258,2384.604980 
	C930.024841,2384.494873 932.047424,2384.384766 934.828491,2384.230469 
z"/>
<path fill="#7F1A5C" opacity="1.000000" stroke="none" 
	d="
M894.725708,2436.741943 
	C904.707520,2436.349121 915.448792,2436.254395 927.115967,2436.303711 
	C917.189697,2436.645264 906.337341,2436.842529 894.725708,2436.741943 
z"/>
<path fill="#B30158" opacity="1.000000" stroke="none" 
	d="
M933.468628,2203.877686 
	C931.729126,2203.510742 929.642212,2202.511230 927.153198,2200.919678 
	C928.874390,2201.300049 930.997864,2202.272705 933.468628,2203.877686 
z"/>
<path fill="#B30158" opacity="1.000000" stroke="none" 
	d="
M904.995605,2279.104980 
	C907.615723,2278.795410 910.841370,2278.686523 914.864502,2278.708496 
	C912.308472,2278.994629 908.954773,2279.150146 904.995605,2279.104980 
z"/>
<path fill="#B30158" opacity="1.000000" stroke="none" 
	d="
M923.478394,2199.604980 
	C922.841797,2199.586182 921.702393,2199.259033 920.102966,2198.539795 
	C920.753845,2198.530518 921.864746,2198.913330 923.478394,2199.604980 
z"/>
<path fill="#634F64" opacity="1.000000" stroke="none" 
	d="
M927.341980,2384.501953 
	C926.924255,2384.743408 925.846252,2384.881836 924.396606,2384.812500 
	C924.910461,2384.535889 925.796082,2384.467285 927.341980,2384.501953 
z"/>
<path fill="#784E54" opacity="1.000000" stroke="none" 
	d="
M860.811707,2414.614746 
	C861.174805,2415.027100 861.536377,2415.934082 861.896118,2417.335205 
	C861.532898,2416.922607 861.171570,2416.015869 860.811707,2414.614746 
z"/>
<path fill="#784E54" opacity="1.000000" stroke="none" 
	d="
M861.457275,2404.144531 
	C861.743530,2404.331787 861.691772,2404.805664 861.291748,2405.555420 
	C861.020081,2405.364746 861.078674,2404.898193 861.457275,2404.144531 
z"/>
<path fill="#B30158" opacity="1.000000" stroke="none" 
	d="
M905.655029,2197.414062 
	C905.892639,2197.462891 904.991455,2197.774902 904.515015,2197.753906 
	C904.460388,2197.461914 904.919983,2197.339355 905.655029,2197.414062 
z"/>
<path fill="#634F64" opacity="1.000000" stroke="none" 
	d="
M885.329590,2385.270996 
	C885.289673,2385.587891 884.825256,2385.761963 883.930237,2385.806152 
	C883.959717,2385.476562 884.428223,2385.293945 885.329590,2385.270996 
z"/>
<path fill="#B30158" opacity="1.000000" stroke="none" 
	d="
M927.865601,2275.685059 
	C927.826355,2275.353760 928.315918,2274.951904 929.379944,2274.578125 
	C929.351074,2274.849121 928.831055,2275.185303 927.865601,2275.685059 
z"/>
<path fill="#B30158" opacity="1.000000" stroke="none" 
	d="
M915.756836,2197.682617 
	C915.978699,2197.795166 915.004883,2197.877686 914.540771,2197.725098 
	C914.564209,2197.409180 915.050293,2197.408447 915.756836,2197.682617 
z"/>
<path fill="#4C6770" opacity="1.000000" stroke="none" 
	d="
M1742.390137,2351.524170 
	C1736.477295,2351.868896 1731.148804,2352.133545 1725.874634,2351.714844 
	C1713.469849,2350.730469 1704.739136,2344.563477 1700.390625,2332.661133 
	C1696.075439,2320.849854 1700.455566,2311.015869 1708.157715,2302.566162 
	C1716.632935,2293.268066 1728.233154,2290.032227 1740.296753,2288.376221 
	C1743.582520,2287.925049 1746.908936,2287.770020 1751.089355,2287.336914 
	C1761.186279,2287.535156 1770.410522,2287.875488 1779.346313,2288.205078 
	C1788.279541,2312.367676 1770.926880,2341.869629 1742.390137,2351.524170 
z"/>
</svg>